<?xml version="1.0" encoding="UTF-8"?>
<svg id="Layer_1" xmlns="http://www.w3.org/2000/svg" version="1.1" xmlns:xlink="http://www.w3.org/1999/xlink" viewBox="0 0 374.63 141.04">
  <!-- Generator: Adobe Illustrator 29.4.0, SVG Export Plug-In . SVG Version: 2.1.0 Build 152)  -->
  <defs>
    <style>
      .st0, .st1 {
        fill: #2d437f;
      }

      .st2, .st3, .st4 {
        fill: #fff;
      }

      .st3, .st4, .st1, .st5, .st6 {
        fill-rule: evenodd;
      }

      .st4 {
        stroke: #fff;
        stroke-linecap: round;
        stroke-linejoin: round;
        stroke-width: 3px;
      }

      .st5 {
        fill: url(#linear-gradient1);
      }

      .st6 {
        fill: url(#linear-gradient);
      }
    </style>
    <linearGradient id="linear-gradient" x1="143.99" y1="17.86" x2="374.63" y2="17.86" gradientUnits="userSpaceOnUse">
      <stop offset="0" stop-color="#fff"/>
      <stop offset="1" stop-color="#2d437f" stop-opacity="0"/>
    </linearGradient>
    <linearGradient id="linear-gradient1" x1="0" y1="17.86" x2="112.79" y2="17.86" gradientUnits="userSpaceOnUse">
      <stop offset="0" stop-color="#2d437f" stop-opacity="0"/>
      <stop offset="1" stop-color="#fff"/>
    </linearGradient>
  </defs>
  <polygon class="st6" points="143.99 14.29 374.63 12.28 374.63 17.63 374.63 18.09 374.63 23.43 143.99 20.51 143.99 20.1 143.99 14.71 143.99 14.29"/>
  <path class="st4" d="M103.08,136.92v-.87c1.66-22.38,14.67-61.21,14.67-80.72,0-9.28-.34-15.25-1.05-17.89-.71-2.64-2-4.34-3.91-5.05v-6.23h31.19v6.23c-1.91.71-3.2,2.41-3.91,5.05-.71,2.63-1.05,8.61-1.05,17.89,0,19.31,11.75,50.26,14.58,81.45-13.47-.14-34.24-.35-50.53.14"/>
  <path class="st1" d="M105.37,120.27h46c.95,5.45,1.73,10.98,2.24,16.51-13.43-.14-34.1-.35-50.36.14v-2.83c.41-4.18,1.16-8.85,2.12-13.82"/>
  <path class="st1" d="M114.24,80.3h28.41c1.24,5.62,2.68,11.57,4.1,17.77h-36.52c1.4-6.02,2.8-12.04,4.01-17.77"/>
  <path class="st1" d="M117.19,40.32h22.38c-.37,3.24-.56,8.24-.56,15.01,0,.9.03,1.82.07,2.76h-21.43c.05-.96.08-1.88.08-2.76,0-6.76-.18-11.77-.56-15.01"/>
  <path class="st3" d="M141.58,10.2h-26.4l4.01-2.34h4.76c-.01-.07-.02-.14-.02-.21v-1.98c0-.7.57-1.27,1.27-1.27h6.35c.7,0,1.27.57,1.27,1.27v1.98c0,.07,0,.14-.02.21h4.76l4.01,2.34Z"/>
  <rect class="st2" x="116.36" y="13.6" width="24.03" height="7.92"/>
  <g>
    <path class="st1" d="M120.29,69.13c-.55,0-1-.45-1-1v-4.54c0-.45.3-.85.74-.96l1.09-.3c.22-.06.42-.13.59-.2.02-.01.04-.02.06-.03.05-.14.09-.26.11-.38.03-.17.06-.39.07-.64.02-.35.04-.75.05-1.19,0-.34.01-.91.01-1.75v-14.61c0-.96-.01-1.72-.03-2.26-.02-.53-.06-.94-.1-1.23-.03-.22-.07-.36-.1-.43,0,0,0-.02,0-.02-.11-.06-.3-.15-.63-.24l-1.09-.3c-.43-.12-.73-.51-.73-.96v-4.55c0-.55.45-1,1-1h16.08c.55,0,1,.45,1,1v4.55c0,.45-.3.84-.73.96l-1.08.31c-.19.05-.35.1-.47.15-.07.03-.14.06-.2.09-.02.05-.04.1-.05.16,0,.02-.08.31-.08.32-.02.08-.03.18-.04.31-.02.18-.03.39-.04.62,0,.28-.02.62-.02,1.01,0,.22,0,.71,0,1.53v14.61c0,.97.01,1.73.03,2.27.02.52.06.93.1,1.22,0,.02,0,.05,0,.08.03.17.06.29.09.35,0,.01,0,.02.01.03.15.08.34.15.65.24l1.08.31c.43.12.73.52.73.96v4.54c0,.55-.45,1-1,1h-16.08ZM133.89,65.65v-.22c-.75-.29-1.3-.66-1.66-1.12-.45-.57-.74-1.3-.86-2.18-.12-.75-.17-2.06-.17-4v-14.61c0-1.21.02-2.11.04-2.69.03-.65.08-1.13.16-1.48.07-.34.16-.66.26-.97.15-.41.35-.74.59-1.04.24-.3.57-.57.99-.81.21-.11.43-.21.69-.31v-.22h-11.12v.23c.75.29,1.29.66,1.66,1.12.44.55.73,1.28.86,2.16.12.77.17,2.09.17,4.01v14.61c0,1.37-.03,2.46-.07,3.17-.05.75-.17,1.38-.35,1.91-.23.63-.58,1.14-1.04,1.53-.33.27-.74.5-1.26.69v.21h11.12Z"/>
    <path class="st0" d="M136.39,33.53v4.55l-1.08.31c-.22.06-.41.12-.55.18-.13.05-.24.1-.33.15-.08.05-.14.09-.2.13-.04.03-.07.06-.08.08h0c-.04.06-.08.11-.1.14-.03.05-.06.11-.08.17h0c-.03.08-.05.18-.09.29h0c-.04.13-.07.25-.08.34h0c-.02.1-.04.24-.06.41-.02.2-.04.42-.05.67h0c0,.3-.02.65-.02,1.04h0c0,.23,0,.71,0,1.54v14.61c0,.99.01,1.76.04,2.31.02.56.06,1.01.11,1.33v.02c.03.24.09.45.15.62.05.14.12.26.2.37.04.05.13.11.25.18.21.11.5.22.86.33l1.08.31v4.54h-16.08v-4.55l1.09-.3c.28-.08.53-.16.74-.26.14-.06.25-.12.31-.17h0c.06-.05.12-.11.16-.18h0c.05-.08.1-.17.14-.27h0c.06-.17.1-.34.14-.52.04-.2.07-.45.08-.74.02-.36.04-.77.05-1.24,0-.35.01-.92.01-1.77v-14.61c0-.98-.01-1.75-.04-2.3-.02-.56-.06-1.01-.11-1.34-.04-.25-.09-.47-.16-.64-.05-.14-.12-.26-.2-.36h0s-.13-.11-.27-.18c-.22-.12-.51-.23-.84-.32l-1.09-.3v-4.55h16.08M121.77,66.65h13.12v-1.94c-.92-.26-1.54-.59-1.87-1.01-.33-.42-.56-1-.66-1.7-.11-.7-.16-1.99-.16-3.86v-14.61c0-1.2.02-2.08.04-2.65.03-.56.07-1.01.14-1.31.06-.3.14-.58.23-.85.1-.26.23-.5.41-.72.17-.21.41-.4.71-.57.3-.16.69-.31,1.19-.45v-1.95h-13.12v1.95c.91.25,1.54.59,1.87,1.02.33.42.55.99.66,1.69.11.71.16,2,.16,3.86v14.61c0,1.42-.03,2.45-.07,3.11-.05.66-.14,1.21-.3,1.65-.16.44-.41.81-.74,1.1-.34.28-.87.52-1.61.72v1.94M136.39,31.53h-16.08c-1.1,0-2,.9-2,2v4.55c0,.9.6,1.69,1.47,1.93l1.09.3s.02,0,.03,0c.02.2.05.51.07.99.02.53.03,1.28.03,2.22v14.61c0,.83,0,1.39-.01,1.73,0,.43-.03.81-.05,1.14,0,.14-.02.25-.03.33-.02,0-.04.01-.06.02l-1.09.3c-.87.24-1.47,1.03-1.47,1.93v4.55c0,1.1.9,2,2,2h16.08c1.1,0,2-.9,2-2v-4.54c0-.89-.59-1.68-1.45-1.92l-1.08-.31s-.04-.01-.06-.02c-.02-.19-.05-.5-.07-.98-.02-.53-.03-1.28-.03-2.23v-14.61c0-.81,0-1.29,0-1.51,0-.36.01-.68.02-.95,0,0,0-.02,0-.03.01-.21.02-.4.04-.57,0-.05,0-.09.02-.13.03-.01.07-.02.11-.03l1.08-.31c.86-.24,1.45-1.03,1.45-1.92v-4.55c0-1.1-.9-2-2-2h0ZM125.44,37.01h5.81c-.21.3-.38.64-.52.99-.01.03-.02.05-.03.08-.13.38-.22.73-.29,1.08-.08.4-.14.93-.17,1.62-.02.58-.04,1.49-.04,2.75v14.61c0,1.99.06,3.35.19,4.16.13.9.42,1.69.86,2.35h-5.78c.22-.32.4-.68.55-1.07.23-.65.36-1.36.41-2.2.05-.74.08-1.83.08-3.24v-14.61c0-1.98-.06-3.34-.18-4.16-.14-.92-.43-1.71-.87-2.35h0Z"/>
  </g>
  <path class="st2" d="M134.89,66.65h-13.12v-1.94c.74-.2,1.27-.44,1.61-.72.33-.28.58-.65.74-1.1.15-.44.25-.99.3-1.65.05-.65.07-1.69.07-3.11v-14.61c0-1.86-.05-3.15-.16-3.86-.11-.7-.32-1.27-.66-1.69-.33-.42-.96-.76-1.87-1.02v-1.95h13.12v1.95c-.5.14-.89.29-1.19.45-.3.17-.54.36-.71.57-.18.22-.32.46-.41.72-.09.27-.17.55-.23.85-.06.3-.11.74-.14,1.31-.02.57-.04,1.46-.04,2.65v14.61c0,1.87.05,3.16.16,3.86.1.7.32,1.28.66,1.7.33.42.96.75,1.87,1.01v1.94Z"/>
  <g>
    <path class="st1" d="M116.44,135.75c-.55,0-1-.45-1-1v-5.54c0-.46.31-.85.75-.97l1.12-.29c.45-.12.84-.25,1.16-.38.27-.12.42-.21.49-.27.01-.01.03-.02.04-.03.05-.05.1-.1.14-.17.08-.11.14-.23.19-.36.07-.18.13-.43.18-.7.06-.31.1-.68.13-1.08.04-.5.07-1.1.08-1.79.02-.63.02-1.52.02-2.71v-22.01c0-2.67-.07-4.5-.22-5.42-.05-.32-.12-.6-.21-.84,0-.02-.01-.03-.02-.05-.08-.19-.17-.35-.27-.47,0,0-.08-.09-.37-.24-.34-.17-.79-.33-1.33-.48l-1.11-.29c-.44-.12-.75-.51-.75-.97v-5.56c0-.55.45-1,1-1h23.82c.55,0,1,.45,1,1v5.55c0,.45-.3.85-.74.97l-1.1.29c-.35.09-.64.18-.87.26-.2.07-.37.14-.51.21-.08.04-.17.1-.25.15-.02.02-.04.03-.06.04-.06.04-.09.07-.1.09-.05.06-.1.12-.13.18-.04.06-.07.12-.09.18-.03.11-.09.28-.14.43-.04.13-.08.28-.12.45,0,.02,0,.03,0,.05-.04.16-.06.35-.09.56-.03.3-.06.63-.08.99-.01.42-.03.95-.04,1.57,0,.45-.01,1.17-.01,2.31v22.01c0,1.41.02,2.57.06,3.46.04.86.09,1.52.17,1.96.06.36.13.65.23.9.01.03.02.05.03.08.07.16.15.29.24.4h0s.08.09.37.23c.32.17.78.33,1.35.48l1.1.3c.44.12.74.51.74.97v5.54c0,.55-.45,1-1,1h-23.82ZM137.78,132.27v-1.18c-1.29-.42-2.19-.96-2.75-1.63-.66-.79-1.08-1.81-1.27-3.05-.18-1.11-.27-3.06-.27-5.96v-22.01c0-1.89.03-3.24.06-4.03.05-.92.13-1.64.24-2.15.1-.45.23-.9.4-1.4.22-.54.5-1,.84-1.41.34-.4.82-.77,1.41-1.09.39-.2.84-.38,1.37-.55v-1.19h-18.86v1.19c1.28.42,2.18.96,2.75,1.64.64.76,1.06,1.78,1.26,3.02.18,1.14.27,3.09.27,5.98v22.01c0,2.06-.04,3.7-.12,4.75-.08,1.09-.25,1.99-.53,2.75-.34.87-.84,1.57-1.49,2.09-.54.42-1.26.77-2.19,1.06v1.17h18.86Z"/>
    <path class="st0" d="M140.31,84.12v5.55l-1.1.29c-.38.1-.7.2-.95.29-.24.09-.45.17-.62.26-.18.1-.33.2-.46.29h0c-.11.08-.19.16-.26.24h0c-.09.11-.16.21-.23.32-.06.1-.11.2-.16.3h0c-.07.19-.13.38-.18.55h0c-.04.15-.09.33-.14.56h0c-.04.2-.08.42-.11.68-.03.31-.06.67-.08,1.05h0c-.01.44-.03.98-.04,1.6,0,.45-.01,1.18-.01,2.33v22.01c0,1.45.02,2.62.06,3.5.04.91.1,1.6.18,2.08v.02c.07.41.16.77.29,1.09h0c.12.29.26.54.43.74.13.16.36.32.68.49.39.2.91.39,1.55.56l1.1.3v5.54h-23.82v-5.54l1.12-.29c.5-.13.93-.27,1.3-.43.3-.13.54-.26.72-.4h0c.14-.11.27-.25.38-.41.12-.17.23-.36.31-.57.09-.26.17-.55.24-.89.07-.35.12-.75.15-1.2.04-.52.07-1.13.08-1.84.02-.63.02-1.54.02-2.74v-22.01c0-2.74-.08-4.6-.23-5.58h0c-.07-.43-.17-.8-.29-1.11h0c-.12-.29-.26-.53-.43-.73-.14-.16-.36-.33-.68-.49-.4-.21-.91-.39-1.53-.55l-1.11-.29v-5.56h23.82M117.92,133.27h20.86v-2.92c-1.46-.39-2.45-.89-2.98-1.53-.53-.64-.89-1.5-1.05-2.56-.17-1.06-.26-3-.26-5.82v-22.01c0-1.8.03-3.14.06-4,.04-.85.11-1.51.21-1.97.1-.45.23-.88.37-1.29.16-.39.37-.76.66-1.09.27-.32.66-.61,1.13-.86.47-.24,1.1-.47,1.89-.68v-2.94h-20.86v2.94c1.45.38,2.45.89,2.98,1.53.53.64.87,1.48,1.05,2.55.17,1.08.26,3.01.26,5.82v22.01c0,2.14-.04,3.7-.11,4.68-.07,1-.23,1.82-.47,2.48-.26.67-.64,1.23-1.17,1.65-.54.42-1.39.79-2.56,1.09v2.92M140.31,82.12h-23.82c-1.1,0-2,.9-2,2v5.56c0,.91.61,1.7,1.49,1.93l1.11.29c.59.15.94.3,1.13.4.04.02.08.04.1.06.02.03.04.08.07.14,0,.02.02.04.02.05.05.13.1.32.15.62,0,.02,0,.03,0,.05.09.63.2,2.04.2,5.21v22.01c0,1.15,0,2.06-.02,2.69-.02.65-.04,1.24-.08,1.74-.03.37-.07.69-.12.97-.04.21-.09.39-.14.55-.03.06-.05.11-.07.13h0s-.11.07-.26.13c-.28.12-.62.23-1.02.33l-1.12.29c-.88.23-1.5,1.02-1.5,1.94v5.54c0,1.1.9,2,2,2h23.82c1.1,0,2-.9,2-2v-5.54c0-.9-.61-1.7-1.48-1.93l-1.1-.3c-.63-.17-.98-.32-1.16-.41-.04-.02-.08-.04-.1-.05-.01-.02-.02-.04-.03-.06-.01-.03-.02-.06-.03-.08-.07-.17-.13-.39-.16-.63,0-.04-.01-.07-.02-.11-.04-.29-.1-.83-.14-1.79-.04-.86-.06-2.01-.06-3.42v-22.01c0-1.14,0-1.85.01-2.3,0-.61.02-1.14.04-1.57.02-.3.04-.62.07-.9.02-.22.05-.37.07-.46,0-.02,0-.04.01-.06.03-.12.05-.22.08-.31,0-.02.01-.04.02-.06.03-.12.07-.24.12-.36,0,0,0-.01.01-.02,0,0,0,0,0,0,0,0,.02-.01.03-.02.03-.02.07-.04.13-.08.08-.04.2-.09.37-.15.14-.05.38-.13.79-.24l1.1-.29c.87-.23,1.48-1.03,1.48-1.93v-5.55c0-1.1-.9-2-2-2h0ZM121.03,87.6h14.71c-.61.36-1.09.75-1.46,1.18-.42.48-.75,1.04-1,1.65-.01.03-.02.05-.03.08-.19.53-.33,1.03-.44,1.52-.13.57-.21,1.32-.26,2.3-.03.84-.06,2.19-.06,4.1v22.01c0,2.95.09,4.96.28,6.14.21,1.39.71,2.59,1.48,3.52.37.45.84.83,1.43,1.17h-14.63c.24-.14.45-.28.65-.44.81-.65,1.42-1.49,1.81-2.51.33-.89.52-1.88.6-3.06.08-1.09.12-2.71.12-4.82v-22.01c0-2.94-.09-4.94-.28-6.13-.23-1.43-.73-2.61-1.48-3.51-.38-.45-.86-.85-1.45-1.19h0Z"/>
  </g>
  <path class="st2" d="M138.78,133.27h-20.86v-2.92c1.17-.3,2.02-.67,2.56-1.09.53-.42.92-.98,1.17-1.65.24-.67.4-1.48.47-2.48.07-.98.11-2.54.11-4.68v-22.01c0-2.8-.09-4.74-.26-5.82-.17-1.06-.52-1.91-1.05-2.55-.53-.64-1.53-1.15-2.98-1.53v-2.94h20.86v2.94c-.79.21-1.42.44-1.89.68-.47.26-.86.55-1.13.86-.29.33-.5.7-.66,1.09-.14.41-.27.83-.37,1.29-.1.45-.17,1.12-.21,1.97-.03.86-.06,2.2-.06,4v22.01c0,2.82.09,4.76.26,5.82.16,1.06.52,1.92,1.05,2.56.53.64,1.52,1.14,2.98,1.53v2.92Z"/>
  <path class="st2" d="M89.38,38.29v25.06c.74.06,1.49.09,2.24.09,3.85,0,6.73-1.06,8.66-3.16,1.92-2.1,2.89-5.27,2.89-9.51,0-2.75-.47-5.07-1.41-6.94-.94-1.88-2.27-3.28-4-4.21-1.72-.93-3.73-1.4-6.03-1.4-1.05,0-1.83.02-2.35.06M91.83,35.01c3.49,0,6.34.21,8.57.63,2.23.42,4.13,1.06,5.73,1.89,1.59.83,2.91,1.84,3.96,3.02,1.04,1.18,1.86,2.58,2.43,4.2.57,1.62.86,3.5.86,5.64,0,2.95-.57,5.53-1.72,7.74-1.09,2.1-2.69,3.83-4.8,5.19-2,1.3-4.44,2.2-7.31,2.7-2.28.41-5.13.62-8.52.62h-14.9v-1.94c.94-.2,1.61-.44,2.05-.72.42-.28.73-.65.94-1.1.19-.44.32-.99.38-1.65.06-.65.09-1.69.09-3.11v-14.61c0-1.86-.07-3.15-.21-3.86-.14-.7-.41-1.27-.84-1.69-.42-.42-1.23-.76-2.38-1.01v-1.95h15.66Z"/>
  <path class="st2" d="M174.25,66.32l-4.1.79-2.31-1.62c-1.5.66-2.85,1.11-4.08,1.31-1.21.21-2.64.31-4.27.31-3.56,0-6.55-.65-8.98-1.94-2.43-1.3-4.23-3.13-5.41-5.48-1.17-2.36-1.75-5.17-1.75-8.42,0-3.42.71-6.38,2.13-8.9,1.42-2.51,3.52-4.44,6.3-5.8,2.79-1.36,6.13-2.03,10.02-2.03,2.28,0,4.33.09,6.16.27,1.82.19,3.77.51,5.85.97v7.1h-4.13c-.76-1.75-1.68-3.05-2.76-3.88-1.09-.83-2.54-1.25-4.39-1.25-3.06,0-5.3,1.08-6.73,3.23-1.43,2.15-2.15,5.41-2.15,9.79s.56,7.69,1.69,9.86c1.13,2.18,2.86,3.28,5.19,3.28,1.27,0,2.28-.38,3.01-1.13.74-.74,1.11-1.79,1.11-3.12v-1.42c0-1.08-.1-1.88-.32-2.41-.21-.53-.56-.96-1.05-1.32-.49-.34-1.18-.6-2.05-.77v-1.95h16.07v1.95c-.97.25-1.66.59-2.04,1.01-.38.42-.64,1-.79,1.72-.15.73-.22,2-.22,3.83v6.01Z"/>
  <path class="st2" d="M195.72,51.8v11.58c.52.04,1.35.06,2.52.06,2.68,0,4.59-.21,5.74-.63,1.13-.42,1.99-1.08,2.54-1.95.56-.87.85-1.96.85-3.28,0-.98-.17-1.84-.5-2.56-.34-.73-.82-1.34-1.44-1.83-.63-.49-1.37-.84-2.26-1.06-.87-.22-2.16-.33-3.88-.33h-3.56ZM195.72,38.29v10.36h2.99c1.57,0,2.86-.12,3.89-.35,1.03-.24,1.87-.6,2.51-1.11.65-.5,1.12-1.08,1.41-1.72.3-.65.45-1.49.45-2.5,0-1.62-.6-2.8-1.76-3.58-1.18-.78-3.02-1.17-5.52-1.17-1.75,0-3.07.02-3.96.06ZM182.48,66.64v-1.94c.94-.2,1.61-.44,2.05-.72.42-.28.73-.65.94-1.1.19-.44.32-.99.38-1.65.06-.65.09-1.69.09-3.11v-14.61c0-1.86-.07-3.15-.21-3.86-.14-.7-.41-1.27-.84-1.69-.42-.42-1.23-.76-2.38-1.01v-1.95h18.28c2.51,0,4.44.06,5.81.17,1.36.1,2.55.27,3.57.51,1.02.23,1.96.53,2.81.89.85.36,1.56.79,2.11,1.3.56.5.98,1.11,1.28,1.81.29.71.44,1.5.44,2.36,0,1.35-.3,2.52-.89,3.52-.58.99-1.39,1.83-2.39,2.51-1.01.69-2.27,1.31-3.79,1.86v.29c2.52.55,4.4,1.45,5.63,2.69,1.23,1.25,1.84,2.86,1.84,4.85,0,1.28-.27,2.43-.84,3.48-.49.92-1.19,1.72-2.08,2.38-.89.68-2.07,1.3-3.55,1.83-1.15.39-2.47.68-4,.88-1.72.19-4.15.29-7.28.29h-16.97Z"/>
  <path class="st2" d="M232.66,54.77l-7.31-12.16c-1.4-2.29-2.43-3.78-3.1-4.45-.69-.68-1.43-1.08-2.23-1.2v-1.95h17v1.95c-.78.06-1.4.25-1.83.58-.44.34-.65.77-.65,1.3,0,.45.1.96.31,1.49.19.54.53,1.18.97,1.9l4.79,8.22,5.04-7.84c.54-.82.91-1.52,1.09-2.07.19-.56.29-1.14.29-1.73,0-.5-.17-.92-.5-1.25-.33-.32-.9-.52-1.71-.6v-1.95h12.1v1.95c-.98.23-1.95.79-2.89,1.68-.94.88-1.98,2.18-3.15,3.89l-8.42,12.18v3.42c0,1.13.02,1.99.06,2.61.05.61.11,1.09.19,1.43.07.33.18.63.33.9.15.28.33.52.57.74.23.21.56.39.98.54.42.15.97.26,1.65.34v1.94h-17.38v-1.94c.68-.1,1.23-.23,1.65-.38.42-.16.76-.34,1.01-.55.24-.2.44-.44.56-.71.14-.28.24-.57.32-.88.08-.32.14-.76.18-1.35.05-.57.07-1.48.07-2.69v-3.36Z"/>
  <path class="st2" d="M66.32,120.37c.82,2.95,2.14,5.19,3.96,6.7,1.83,1.5,4.36,2.26,7.58,2.26,1.5,0,2.88-.23,4.15-.66,1.25-.43,2.27-1.15,3.05-2.16.78-.99,1.19-2.26,1.19-3.83,0-1.38-.33-2.54-.99-3.5-.68-.95-1.78-1.88-3.33-2.77-1.55-.9-4.1-2.02-7.63-3.37-3.12-1.16-5.72-2.39-7.76-3.67-2.04-1.28-3.63-2.8-4.76-4.53-1.12-1.73-1.67-3.75-1.67-6.06,0-2.98.92-5.54,2.77-7.68,1.86-2.14,4.48-3.75,7.84-4.83,3.36-1.1,7.22-1.64,11.54-1.64,3.38,0,6.5.12,9.39.4,2.89.28,5.72.63,8.49,1.07v11.35h-6.95c-1.08-2.72-2.42-4.73-4.01-6.01-1.59-1.28-3.75-1.93-6.5-1.93-2.39,0-4.3.5-5.75,1.53-1.45,1.01-2.16,2.4-2.16,4.16,0,1.44.37,2.65,1.12,3.63.75.99,1.93,1.93,3.56,2.8,1.6.89,4.06,1.94,7.32,3.17,3.17,1.19,5.75,2.46,7.76,3.79,2.02,1.32,3.56,2.86,4.62,4.59,1.08,1.73,1.62,3.72,1.62,5.95,0,2.75-.56,5.09-1.64,7.01-1.1,1.91-2.6,3.46-4.55,4.65-1.93,1.19-4.23,2.07-6.92,2.6-2.67.54-5.61.81-8.8.81-6.03,0-12.53-.7-19.5-2.11v-11.73h6.99Z"/>
  <path class="st2" d="M201.7,133.01l-6.24,1.21-3.52-2.46c-2.28,1.01-4.34,1.68-6.2,1.99-1.85.32-4.03.47-6.5.47-5.42,0-9.97-.99-13.66-2.95-3.7-1.97-6.43-4.76-8.23-8.34-1.78-3.6-2.67-7.86-2.67-12.82,0-5.2,1.08-9.71,3.24-13.54,2.16-3.82,5.35-6.76,9.59-8.83,4.25-2.07,9.32-3.09,15.25-3.09,3.47,0,6.59.14,9.38.41,2.77.29,5.73.78,8.91,1.47v10.8h-6.29c-1.15-2.66-2.56-4.64-4.2-5.91-1.66-1.27-3.87-1.9-6.67-1.9-4.65,0-8.07,1.64-10.25,4.91-2.18,3.27-3.28,8.23-3.28,14.9s.85,11.7,2.58,15.01c1.73,3.32,4.36,4.99,7.9,4.99,1.93,0,3.47-.58,4.58-1.71,1.13-1.13,1.69-2.72,1.69-4.74v-2.16c0-1.64-.16-2.86-.49-3.67-.31-.81-.85-1.47-1.6-2-.75-.52-1.79-.92-3.12-1.18v-2.97h24.45v2.97c-1.48.38-2.53.9-3.1,1.55-.58.64-.98,1.51-1.2,2.62-.23,1.12-.33,3.04-.33,5.83v9.15Z"/>
  <path class="st2" d="M252.04,133.5l-19.61-27.61-4.86-7.13h-.51c.24,4.04.35,8.55.35,13.54v8.25c0,2.85.1,4.8.31,5.87.21,1.07.63,1.94,1.27,2.59.64.64,1.86,1.15,3.63,1.54v2.95h-18.02v-2.95c1.43-.31,2.48-.67,3.12-1.1.65-.43,1.12-.99,1.43-1.67.3-.67.51-1.5.58-2.51.09-.99.14-2.57.14-4.73v-22.23c0-2.83-.1-4.79-.31-5.87-.21-1.07-.63-1.93-1.27-2.57-.65-.64-1.85-1.16-3.63-1.55v-2.97h19.55l22.62,32.37h.45c-.23-3.95-.35-8.54-.35-13.77v-5.65c0-2.83-.1-4.79-.31-5.87-.21-1.07-.63-1.93-1.27-2.57-.64-.64-1.87-1.16-3.63-1.55v-2.97h18.02v2.97c-.96.21-1.73.44-2.3.69-.58.26-1.03.55-1.38.87-.33.34-.59.7-.78,1.1-.19.41-.35.84-.47,1.3-.1.46-.19,1.13-.24,1.99-.05.87-.09,2.22-.09,4.04v35.19h-12.44Z"/>
  <path class="st2" d="M283.76,120.37c.82,2.95,2.14,5.19,3.96,6.7,1.83,1.5,4.36,2.26,7.58,2.26,1.5,0,2.88-.23,4.15-.66,1.26-.43,2.27-1.15,3.05-2.16.78-.99,1.19-2.26,1.19-3.83,0-1.38-.33-2.54-.99-3.5-.68-.95-1.78-1.88-3.33-2.77-1.55-.9-4.1-2.02-7.63-3.37-3.12-1.16-5.72-2.39-7.76-3.67-2.04-1.28-3.63-2.8-4.76-4.53-1.12-1.73-1.67-3.75-1.67-6.06,0-2.98.92-5.54,2.77-7.68,1.86-2.14,4.48-3.75,7.84-4.83,3.36-1.1,7.22-1.64,11.54-1.64,3.38,0,6.5.12,9.39.4,2.89.28,5.72.63,8.49,1.07v11.35h-6.95c-1.08-2.72-2.42-4.73-4.01-6.01-1.59-1.28-3.75-1.93-6.5-1.93-2.39,0-4.3.5-5.75,1.53-1.45,1.01-2.16,2.4-2.16,4.16,0,1.44.37,2.65,1.12,3.63.75.99,1.93,1.93,3.56,2.8,1.6.89,4.06,1.94,7.32,3.17,3.17,1.19,5.75,2.46,7.76,3.79,2.02,1.32,3.56,2.86,4.62,4.59,1.08,1.73,1.62,3.72,1.62,5.95,0,2.75-.56,5.09-1.64,7.01-1.1,1.91-2.6,3.46-4.55,4.65-1.93,1.19-4.24,2.07-6.92,2.6-2.67.54-5.61.81-8.8.81-6.03,0-12.53-.7-19.5-2.11v-11.73h6.99Z"/>
  <polygon class="st5" points="112.79 14.32 0 13.29 0 17.67 0 18.04 0 22.43 112.79 20.52 112.79 20.18 112.79 14.66 112.79 14.32"/>
  <path class="st2" d="M331.78,133.05c0,.15,0,.28.01.41,0,.13.01.23.04.31s.06.14.12.21c.05.05.12.1.19.14.09.04.19.06.31.1v.41h-3.3v-.41c.15-.05.28-.09.37-.14s.15-.12.19-.19c.05-.09.08-.21.09-.33s.01-.3.01-.5v-5.42c0-.21,0-.37-.01-.5s-.04-.23-.08-.32c-.05-.08-.12-.15-.21-.21s-.22-.09-.37-.13v-.42h3.3v.42c-.17.04-.3.09-.37.14-.09.05-.14.12-.19.19-.04.08-.06.18-.08.3-.03.12-.03.3-.03.53v5.42ZM338.21,134.63l-2.42-3.88-.59-1h-.06c.03.57.04,1.21.04,1.91v1.16c0,.4.01.67.04.82.03.14.08.27.15.36s.23.15.45.22v.41h-2.22v-.41c.17-.05.3-.1.37-.15.09-.06.14-.14.18-.23.04-.1.06-.22.08-.36,0-.14.01-.36.01-.66v-3.12c0-.4-.01-.68-.04-.82-.03-.15-.08-.27-.15-.36s-.23-.17-.45-.22v-.42h2.41l2.78,4.55h.06c-.03-.55-.05-1.2-.05-1.93v-.79c0-.4-.01-.68-.04-.82-.03-.15-.08-.27-.15-.36s-.23-.17-.44-.22v-.42h2.22v.42c-.12.03-.22.06-.28.09-.08.04-.13.08-.17.13-.04.04-.08.09-.1.15-.03.05-.04.12-.05.18s-.03.15-.04.28v5.5h-1.53ZM346.84,128.04v1.52h-.77c-.13-.39-.3-.67-.46-.84-.18-.17-.42-.26-.73-.26-.49,0-.86.23-1.12.68-.24.45-.37,1.13-.37,2.03,0,.98.13,1.7.36,2.16s.59.71,1.07.71c.21,0,.4-.05.55-.14.15-.08.28-.21.4-.36.1-.15.22-.39.32-.67h.77v1.53c-.41.12-.8.21-1.13.26-.35.04-.75.06-1.21.06-.67,0-1.24-.14-1.69-.41-.46-.28-.8-.67-1.03-1.18s-.33-1.12-.33-1.83.13-1.34.39-1.87.64-.94,1.15-1.22c.5-.3,1.09-.44,1.79-.44.37,0,.71.01,1.04.05.32.04.66.12,1.02.21ZM349.71,132.72v1.91h-1.7v-1.91h1.7Z"/>
</svg>