<?xml version="1.0" encoding="UTF-8"?>
<svg id="Layer_1" xmlns="http://www.w3.org/2000/svg" version="1.1" viewBox="0 0 410 310">
  <!-- Generator: Adobe Illustrator 29.4.0, SVG Export Plug-In . SVG Version: 2.1.0 Build 152)  -->
  <defs>
    <style>
      .st0 {
        fill: #ffd921;
      }

      .st1 {
        fill: #6f7576;
      }
    </style>
  </defs>
  <path class="st1" d="M16.98,309.35L.64,293.02V16.99L16.98.65h376.03s16.34,16.47,16.34,16.47v276.03l-16.34,16.34-376.03-.13ZM390.8,304.14l13.2-13.21V19.33l-13.2-13.34H19.2s-13.21,13.21-13.21,13.21v271.6l13.21,13.21,371.61.13Z"/>
  <path class="st0" d="M392.75,1.29l15.96,16.09v275.5l-15.96,15.96-375.5-.13-15.96-15.96V17.25L17.25,1.29h375.5M18.93,304.66l372.14.13,13.58-13.59V19.06l-13.58-13.72H18.93s-13.58,13.59-13.58,13.59v272.14l13.58,13.59M393.28,0H17.25s-.53,0-.53,0l-.38.38L.38,16.34l-.38.38v276.56l.38.38,15.96,15.96.38.38h.53l375.5.13h.53l.38-.38,15.96-15.96.38-.38V16.85l-.38-.38L393.66.38l-.38-.38h0ZM19.47,6.64h371.07s12.83,12.96,12.83,12.96v271.07l-12.83,12.83-371.07-.13-12.83-12.83V19.47l12.83-12.83h0Z"/>
</svg>