<?xml version="1.0" encoding="UTF-8"?>
<svg id="Layer_1" xmlns="http://www.w3.org/2000/svg" version="1.1" viewBox="0 0 360 336.71">
  <!-- Generator: Adobe Illustrator 29.4.0, SVG Export Plug-In . SVG Version: 2.1.0 Build 152)  -->
  <defs>
    <style>
      .st0 {
        fill: #231f20;
      }

      .st1 {
        fill: #a53231;
      }
    </style>
  </defs>
  <g>
    <path class="st1" d="M178.81,335.63c.6-.06,1.15-.1,1.66-.13.51-.05.97-.09,1.39-.13.84-.07,1.53-.12,2.09-.14,1.12-.04,1.76-.04,2.2.01.89.1,1.03.31,2.8.34l-2.43.3c-.81.1-1.62.21-2.44.28-1.62.06-3.45.17-5.27.2-.91.03-1.81.06-2.68.09-.87.01-1.7.03-2.46.04-.77.02-1.47.04-2.07.05-.61,0-1.12,0-1.5,0-.77,0-1.03.01-.55-.02.63,0,5.19-.41,9.25-.89Z"/>
    <path class="st1" d="M167.66,336.66c.91.03,1.06.03,1.97.05-.88,0-1.77-.02-2.65-.07.22.01.45.02.67.01Z"/>
    <path class="st1" d="M196.05,334.4l2.24-.38,2.23-.44c1.04-.1-1.47.48-1.32.54,1.69-.2,3.38-.35,5.06-.58-1.71.27-2.99.45-3.96.63-.97.17-1.64.32-2.15.4-1.01.16-1.35.14-2.1-.17Z"/>
    <path class="st1" d="M255.49,323.02c.45-.09.76-.11.96-.09.19.02.27.09.27.2-.01.22-.39.58-.91,1-1.05.83-2.69,1.89-3.23,2.45-1.4.52-2.81.82-3.6.82-.8,0-.99-.32-.03-1.06.91-.36,1.67-.69,2.32-1,.33-.15.63-.3.91-.44.28-.15.54-.29.78-.43.97-.55,1.7-1.02,2.54-1.44Z"/>
    <g>
      <path class="st1" d="M221.74,328.14c-.17.19-.47.39-.86.6-.39.21-.87.44-1.41.63-1.08.41-2.38.82-3.61,1.2-2.46.72-4.61,1.32-4.05,1.61.49.25.98.51,2.2.47l1.2-.39c.4-.13.8-.26,1.19-.41l2.37-.87c1.53-.33,2.59-.59,3.31-.73.72-.14,1.09-.17,1.22-.12.26.09-.44.47-1.28.9-.42.21-.86.44-1.24.64-.37.21-.67.38-.79.51-.23.27.29.4,2.41.09.89-.25,1.55-.43,2.08-.6.27-.08.5-.16.71-.25.21-.09.39-.17.57-.27,3.84-1.69,2.58-1.64.14-1.46.71-.23,1.37-.43,1.97-.6.6-.17,1.16-.3,1.66-.44,1-.26,1.82-.42,2.51-.5.69-.08,1.25-.09,1.72-.05.47.03.85.1,1.19.19.69.18,1.22.43,1.97.5.38.04.81.03,1.35-.06.27-.04.56-.1.88-.2.32-.09.68-.21,1.07-.35,1.05-.44,1.88-.82,2.52-1.17.64-.35,1.09-.67,1.4-.95.63-.55.7-.95.57-1.28-.26-.66-1.31-1.02-.47-1.81.09.26.42.41.95.47.53.06,1.26.03,2.14-.11.89-.13,1.94-.35,3.13-.63.6-.13,1.21-.32,1.86-.5.65-.19,1.32-.4,2.02-.62,2.79-.89,5.91-2.11,9.07-3.53.8-.34,1.58-.73,2.36-1.12.78-.39,1.57-.78,2.35-1.18.39-.19.77-.41,1.15-.62.38-.21.76-.43,1.14-.64.75-.43,1.5-.85,2.22-1.28,1.25-.97,2.55-1.91,3.89-2.83,1.32-.96,2.68-1.88,4.07-2.81.68-.48,1.38-.96,2.08-1.44.35-.24.7-.48,1.06-.72.35-.24.71-.48,1.06-.73.7-.5,1.41-.99,2.12-1.5.71-.5,1.43-1,2.13-1.53.7-.53,1.41-1.06,2.12-1.6.35-.27.71-.54,1.07-.81.35-.28.7-.57,1.04-.85.7-.57,1.39-1.15,2.09-1.73l.52-.44c.17-.15.34-.3.51-.46.34-.31.67-.62,1.01-.93.67-.62,1.34-1.26,2.01-1.91.65-.66,1.29-1.34,1.92-2.03.32-.34.63-.69.94-1.04.31-.35.62-.7.92-1.07.6-.73,1.18-1.48,1.75-2.24.6-.54,1.2-1.13,1.83-1.73.32-.3.64-.6.96-.91.33-.31.66-.62.98-.95.65-.65,1.32-1.32,2.01-2,.35-.34.68-.69,1.02-1.05.34-.36.68-.72,1.03-1.08,2.75-2.91,5.59-6.11,8.18-9.53.13.1.27.17.39.28.02-.25-.03-.43-.17-.53.35-.24.69-.52,1.03-.83.34-.32.68-.67,1.03-1.05s.69-.78,1.03-1.21c.34-.43.67-.89,1-1.36.66-.94,1.32-1.94,1.93-2.98.31-.52.62-1.03.92-1.55.15-.26.3-.51.45-.77.15-.26.29-.51.44-.77.57-1.02,1.15-1.99,1.69-2.89.53-.91,1.06-1.72,1.57-2.41.52-.68,1-1.25,1.49-1.63.49-.38.97-.58,1.45-.54.15-.51.31-1.01.45-1.52,1.62-3.52,1.91-3.38,2.12-2.81.11.28.19.67.42.76.22.09.6-.12,1.24-1.06.33-.84.74-1.69,1.17-2.55.43-.86.87-1.74,1.35-2.61.24-.44.48-.87.71-1.31.23-.44.47-.88.7-1.31.23-.44.46-.87.69-1.3.11-.22.22-.43.34-.64.11-.22.21-.43.31-.64.41-.85.8-1.69,1.13-2.5.17-.4.31-.81.44-1.2.13-.39.24-.78.34-1.15.19-.75.31-1.46.33-2.13.01-.67-.07-1.29-.27-1.85.37-.49.27.3.65-.2l.34-1.43c.11-.48.21-.96.32-1.44.21-.96.42-1.91.62-2.87-.56-.58-1.06-1.94-2.04-1.24.21-.64.19-1.3.21-2.01.01-.36.04-.73.1-1.13.06-.4.16-.81.34-1.26.61-2.32.99-2.37,1.35-2.03.36.34.69,1.08,1.19.32.53-3.02,1.06-6.14,1.54-9.3.51-3.16.93-6.37,1.38-9.56.41-3.19.84-6.36,1.2-9.46.19-1.55.38-3.08.57-4.58.05-.38.09-.75.14-1.12.04-.37.09-.74.13-1.11.09-.74.18-1.47.28-2.19.56.02.95-.8,1.22-2.14.13-.67.24-1.47.3-2.36.06-.89.08-1.86.09-2.88,0-.51,0-1.03-.03-1.55-.02-.53-.04-1.06-.06-1.59-.03-.53-.05-1.06-.09-1.59-.04-.53-.09-1.05-.13-1.56-.16-2.05-.44-3.94-.61-5.34.04-.71.03-1.42,0-2.14-.02-.72-.06-1.44-.13-2.16-.08-.72-.17-1.45-.28-2.17-.11-.73-.22-1.45-.38-2.18-.15-.72-.31-1.45-.47-2.16-.08-.36-.16-.72-.26-1.08-.09-.36-.19-.71-.29-1.07-.2-.71-.4-1.42-.59-2.12-.2-.7-.43-1.39-.63-2.08-.21-.69-.42-1.37-.63-2.04-.22-.67-.44-1.34-.65-1.99-.22-.66-.41-1.31-.62-1.94-.21-.64-.41-1.26-.59-1.88-.36-1.24-.72-2.43-1.01-3.57-.15-.57-.27-1.14-.39-1.69-.12-.55-.23-1.08-.31-1.61,1.29,2.25,2.26,5.55,3.02,8.38.2.71.36,1.39.53,2.01.17.63.33,1.2.49,1.69.17.49.32.91.48,1.23.16.32.33.53.51.63.01-.79.02-1.58,0-2.37-.24-1.29-.5-2.78-.85-4.32-.17-.77-.34-1.55-.53-2.33-.2-.78-.41-1.55-.63-2.31-.89-3.02-1.98-5.7-3.07-7,.22,1.44.21,2.25.1,2.82-.1.57-.26.91-.33,1.43-.97-2.13-1.54-2.37-2.61-5.04-1.51-3.93-3.08-8.21-2.48-8.43.58,1.01,1.03,2.13,1.46,3.22.21.55.42,1.09.61,1.62.19.53.38,1.05.58,1.54.26.12.3-.23.18-.85-.06-.31-.15-.7-.27-1.13-.13-.43-.28-.9-.45-1.39-.66-1.98-1.64-4.29-2.05-5.47.08,1.15-.23,1.35-.64,1.19-.41-.16-.93-.69-1.35-1-.42-.32-.71-.42-.68.24.02.33.1.86.29,1.66.09.4.21.86.36,1.4.07.27.15.56.24.87.08.31.17.64.26,1-.42-.99-.88-1.96-1.32-2.93l-.67-1.46-.69-1.45c-.8-1-.77-.28-.41,1.21.19.74.42,1.7.7,2.72.14.51.28,1.04.43,1.58.13.54.27,1.08.4,1.61.53,2.12.89,4.08.85,4.88-.04.8-.53.44-1.72-2.04-.76-.92-.88.66-2.3-2.73-.01,2.13,1.12,5.96,1.87,7.46-.08.38-.09.9-.04,1.52.02.31.06.65.11,1,.04.36.09.74.15,1.13.11.79.26,1.63.42,2.51.14.87.29,1.77.43,2.65.15.88.26,1.75.35,2.55.09.81.16,1.55.16,2.21,0,1.3-.19,2.21-.7,2.4.77,2.46,1.18,4.66,1.32,6.7.04.51.08,1.01.08,1.5,0,.49,0,.98-.01,1.46-.03.96-.09,1.89-.21,2.82-.11.93-.23,1.84-.38,2.77-.15.93-.31,1.87-.45,2.83-.31,1.93-.6,3.96-.76,6.26-.02.36-.04.71-.05,1.04-.02.33-.04.64-.06.93-.03.58-.06,1.1-.07,1.56-.01.46,0,.85,0,1.19,0,.34.01.63.04.88.09.98.33,1.23.65,1.22.64-.01,1.56-1.08,2.21.63-.12.74-.24,1.47-.32,2.2-.08.73-.13,1.46-.17,2.18-.05.72-.07,1.43-.07,2.12,0,.35,0,.69.01,1.04,0,.34.01.68.02,1.01.03,1.34.15,2.61.22,3.77.04.58.09,1.14.13,1.66.02.26.04.52.06.76.02.25.03.48.04.71-.2,1.61-.61,2.87-1.03,3.45-.41.58-.77.48-.81-.6-3.08,11.73-7.01,23.1-11.78,33.97l-.9,2.04-.93,2.02-.46,1.01c-.15.34-.32.67-.48,1l-.96,2c-1.32,2.65-2.64,5.28-4.05,7.87-1.38,2.6-2.88,5.13-4.35,7.66-1.52,2.51-3.05,5-4.68,7.43-.43.43-.84.87-1.23,1.31-.4.44-.79.88-1.17,1.33-.38.45-.74.9-1.09,1.36-.36.46-.72.91-1.06,1.37-.35.46-.69.92-1.02,1.39-.34.46-.68.92-1.02,1.38-.33.46-.67.93-1,1.39-.33.47-.68.91-1.02,1.37-.69.9-1.38,1.81-2.14,2.66-.75.86-1.51,1.7-2.35,2.48-1.65,1.59-3.52,2.99-5.7,4.11.24-.12.49-.24.73-.37l.72-.38c.4.07-.26,1.07-.79,1.86.38-.17.75-.34,1.12-.52.37-.17.74-.35,1.1-.52.73-.34,1.46-.67,2.18-.99-.51.48-1.01.97-1.52,1.46-.5.49-.99.99-1.5,1.47-.5.49-.99.98-1.48,1.49-.24.25-.47.51-.72.76-.24.25-.48.5-.71.76-.06.49-.27,1.03-.61,1.62-.17.3-.37.6-.59.92-.11.16-.23.32-.35.48-.13.16-.26.32-.4.48-.56.65-1.2,1.33-1.88,2.03-.34.35-.69.71-1.06,1.06-.37.35-.74.7-1.12,1.05-.75.71-1.5,1.42-2.23,2.11-.74.68-1.45,1.36-2.08,2.02-.32.33-.62.66-.89.98-.28.31-.54.62-.78.92-.47.6-.82,1.18-1.03,1.73-3.14,2.35-5.26,3.73-6.85,4.67-.79.47-1.44.84-2.03,1.14-.59.29-1.12.54-1.64.78-1.05.48-2.09.98-3.73,1.83-.41.21-.85.45-1.34.72-.49.27-1.02.58-1.61.89-.59.32-1.24.68-1.96,1.08-.36.2-.73.41-1.11.64-.39.22-.8.44-1.23.68-.85.63-1.71,1.29-2.6,1.95-.91.64-1.83,1.29-2.77,1.95-.24.17-.47.33-.71.5-.24.16-.49.32-.73.48-.49.32-.98.64-1.48.96-.5.32-1,.64-1.51.97-.52.31-1.04.62-1.56.93-2.08,1.27-4.28,2.43-6.52,3.56-1.13.55-2.27,1.08-3.42,1.61-1.16.5-2.34.98-3.51,1.45-.21.09-.43.17-.64.25-.21.08-.42.15-.63.22-.42.14-.83.26-1.22.38-.79.23-1.51.41-2.11.53-.6.12-1.08.16-1.38.16-.3,0-.42-.07-.3-.2-.51.21-1.05.43-1.61.66-.56.22-1.14.47-1.75.69-1.21.44-2.48.9-3.75,1.37-1.29.43-2.58.85-3.83,1.27-1.26.38-2.46.74-3.56,1.08-.29.11-.57.21-.84.31-.27.09-.54.18-.79.27-.51.17-.98.34-1.42.5-.87.32-1.61.58-2.21.8-1.21.42-1.9.71-2.16.88-.53.35.65.28,2.65.02,1-.15,2.2-.37,3.51-.6.33-.06.66-.11.99-.18.34-.07.67-.14,1.02-.21.68-.15,1.38-.3,2.07-.45.35-.08.69-.15,1.04-.23.34-.08.68-.17,1.01-.25.67-.17,1.32-.33,1.95-.49.31-.08.62-.16.91-.23.15-.04.29-.08.44-.11.14-.04.28-.08.42-.12.55-.16,1.05-.31,1.5-.44Z"/>
      <path class="st1" d="M357.27,190.56c.62.47,1.15-.61,1.62-2.03.45-1.43.79-3.2,1.11-4.07l-.33-2.42c-.03-.75-.09-1.41-.17-1.98-.08-.57-.17-1.06-.28-1.47-.2-.81-.44-1.28-.69-1.45-.5-.34-1.05.52-1.45,2.37.54.72.72,2.65.73,4.82-.02,1.09-.08,2.23-.17,3.31-.09,1.08-.24,2.1-.37,2.92Z"/>
      <path class="st1" d="M347.24,237.38l-1.03-1.27c-.36,1.17-.77,2.32-1.16,3.48-.2.58-.39,1.16-.6,1.74l-.63,1.73c.46.1,1.04-.68,1.65-1.8.59-1.13,1.22-2.6,1.78-3.88Z"/>
      <path class="st1" d="M330.01,92.74c.76,1.44,1.33,2.7,1.85,3.86.53,1.15.94,2.23,1.38,3.31.45,1.07.86,2.18,1.35,3.39.51,1.21,1.04,2.56,1.75,4.13.21-.55.41-1.1.6-1.64-.14-.4-.28-.8-.41-1.2-.07-.2-.14-.4-.21-.6-.07-.2-.15-.4-.22-.6-.3-.8-.61-1.61-.91-2.42-.15-.41-.32-.81-.49-1.22-.17-.41-.34-.81-.51-1.22-.18-.41-.35-.82-.53-1.23-.18-.41-.37-.82-.57-1.23-1.51-3.31-3.38-6.62-5.58-10.01-1.78-2.11-.5-.04.8,2.41,1.34,2.43,2.68,5.26,1.71,4.28Z"/>
      <path class="st1" d="M334.14,106.31c-.32-.67-.64-1.34-.96-2.02-.32-.68-.63-1.37-.94-2.07-.3-.7-.63-1.39-.93-2.1-.15-.35-.31-.71-.46-1.06-.15-.36-.3-.71-.47-1.07-.64-1.41-1.24-2.86-1.91-4.27-.32-.71-.65-1.42-.97-2.13-.34-.7-.68-1.4-1.01-2.1-.17-.35-.34-.69-.51-1.04-.18-.34-.35-.68-.53-1.02-.35-.68-.71-1.35-1.05-2.02-.35-.67-.72-1.32-1.08-1.96-.36-.64-.71-1.29-1.08-1.91-.37-.62-.74-1.23-1.1-1.84-.36-.6-.71-1.2-1.08-1.77-.36-.58-.72-1.14-1.06-1.7-.17-.28-.35-.55-.52-.82-.17-.27-.35-.53-.52-.8.26.66.95,2.12,1.91,4.02.24.47.48.99.75,1.51.27.53.55,1.07.84,1.64.3.56.58,1.16.89,1.76.31.6.62,1.21.93,1.83.62,1.25,1.27,2.51,1.91,3.78.31.64.62,1.27.93,1.9.31.63.61,1.24.89,1.86.28.61.55,1.21.82,1.8.13.29.26.58.38.86.12.29.23.57.34.84.22.55.42,1.09.61,1.59.18.51.35.99.47,1.45.5,1.13.97,2.13,1.4,3.1.43.97.85,1.91,1.28,2.88.42.97.84,1.99,1.32,3.12.24.56.47,1.16.72,1.8.25.64.52,1.31.8,2.03.97,2.07,1.01,1.29.65-.39-.19-.83-.48-1.89-.78-2.93-.14-.52-.32-1.03-.47-1.5-.15-.47-.3-.91-.42-1.28Z"/>
      <path class="st1" d="M316.47,71.84c-.73-1.07-1.57-2.3-1.98-2.93-.28-.37-.04-.08.29.45.34.53.82,1.27,1.11,1.74.17.27.42.65.67,1.02.24.37.47.72.62.94.3.44.3.33-.71-1.23Z"/>
    </g>
  </g>
  <g>
    <path class="st1" d="M251.52,20.64c-1.47-.48-2.69-.9-3.72-1.26-1.03-.34-1.86-.63-2.53-.88-.67-.25-1.19-.47-1.61-.64-.42-.18-.73-.33-.98-.47-.5-.28-.77-.51-1.17-.77-.2-.13-.43-.28-.75-.44-.32-.16-.72-.34-1.24-.56l1.52.4,1.51.44c1.01.29,2.02.57,3.02.9,3.9,1.44,8.8,3.42,12.4,5.01.91.37,1.73.76,2.44,1.07.71.31,1.31.58,1.77.78.9.41,1.21.55.62.33-.37-.16-1.94-.75-4.03-1.5-1.05-.36-2.24-.76-3.48-1.17-1.24-.4-2.53-.8-3.77-1.23Z"/>
    <path class="st1" d="M265.08,25.43c-1.05-.53-1.22-.62-2.26-1.15,1.03.49,2.04,1,3.04,1.54-.25-.14-.51-.27-.78-.39Z"/>
    <path class="st1" d="M230.53,13.58c-.47-.11-.95-.2-1.42-.3l-1.43-.28-1.42-.28-1.43-.25c-1.3-.35,1.98.1,1.83-.03l-3.16-.83-.79-.21-.79-.19-1.59-.39c1.08.25,2.03.43,2.86.61.83.18,1.55.33,2.17.45,1.25.23,2.11.41,2.75.54.64.14,1.06.25,1.42.41.18.08.34.18.5.3.16.12.33.27.51.45Z"/>
    <path class="st1" d="M153.56,3.34c-2.35-.18-1.59-.77.01-1.44.4-.17.85-.34,1.31-.51.47-.16.95-.32,1.41-.48.92-.31,1.74-.61,2.18-.86.97-.07,1.91-.08,2.74-.03.41.02.8.06,1.14.11.34.05.64.12.89.19.99.3,1.11.75-.36,1.27-2.51.22-4.25.53-5.65.87-.7.16-1.32.32-1.92.46-.59.15-1.16.29-1.75.4Z"/>
    <g>
      <path class="st1" d="M196.9,9.71c.57-.3,1.78-.45,3.26-.52.74-.03,1.55-.01,2.38,0,.83.02,1.68.03,2.5.09,3.28.15,6.13.42,5.58-.18-.48-.51-.96-1.02-2.45-1.51l-3.25-.05c-1.08,0-2.16.02-3.24.04-1-.12-1.85-.2-2.56-.28-.71-.08-1.3-.16-1.76-.23-.93-.14-1.4-.24-1.54-.34-.14-.1.04-.2.41-.29.37-.09.92-.18,1.51-.26,1.19-.15,2.55-.3,2.94-.53.39-.23-.19-.55-2.89-1.09-.59-.05-1.11-.06-1.57-.08-.46-.02-.86-.03-1.22-.03-.72,0-1.26.01-1.77.09-5.37.47-3.81.92-.76,1.68-.96-.01-1.84-.04-2.64-.08-.8-.03-1.53-.06-2.2-.11-.66-.05-1.26-.11-1.8-.18-.54-.06-1.03-.13-1.47-.21-.88-.16-1.56-.36-2.12-.59-.56-.22-1-.45-1.39-.69-.77-.48-1.33-.98-2.23-1.35-.45-.19-.99-.32-1.68-.42-.69-.09-1.54-.13-2.61-.09-1.46.15-2.63.31-3.55.49-.92.19-1.59.41-2.08.62-.98.43-1.22.88-1.18,1.32.08.88,1.23,1.7-.1,2.34-.04-.69-1.38-1.17-3.67-1.52-.57-.09-1.2-.15-1.88-.2-.68-.05-1.42-.1-2.2-.13-.78-.03-1.61-.03-2.48-.03-.87,0-1.78,0-2.72.05-.94.04-1.92.09-2.92.15-1,.08-2.03.17-3.08.27-.53.05-1.05.11-1.59.18-.53.07-1.07.14-1.61.2-.54.07-1.09.14-1.63.22-.55.09-1.1.18-1.65.27-4.41.72-8.92,1.77-13.1,3.03-3.78,1.58-7.7,3.05-11.74,4.59-4.04,1.53-8.18,3.14-12.35,4.98-4.16,1.84-8.36,3.9-12.43,6.36-.5.31-1.01.63-1.52.94-.51.32-1.01.63-1.51.98-.99.68-1.99,1.35-2.96,2.07-.97.73-1.93,1.47-2.88,2.24-.93.79-1.86,1.6-2.77,2.43-3.52,2.28-7.54,4.99-11.66,8.15-4.12,3.16-8.35,6.76-12.28,10.69-.15-.14-.31-.26-.44-.41-.07.31-.05.56.11.7-.48.25-.98.55-1.46.9-.49.35-.99.75-1.49,1.18-.5.43-1.01.9-1.52,1.4-.5.51-1,1.04-1.5,1.59-1.02,1.1-1.98,2.32-2.95,3.54l-.72.92c-.23.31-.46.63-.7.94-.46.62-.92,1.25-1.37,1.86-.46.6-.88,1.22-1.31,1.81-.43.59-.85,1.16-1.26,1.7-.42.54-.8,1.07-1.19,1.56-.39.49-.77.94-1.14,1.35-.19.21-.37.4-.55.59-.18.19-.35.36-.53.52-.35.33-.69.6-1.02.82-.67.43-1.31.64-1.91.54-.13.31-.26.63-.39.95l-.38.96c-.63,1.08-1.14,1.88-1.52,2.46-.38.58-.66.95-.87,1.15-.42.4-.55.17-.65-.21-.2-.74-.24-2.04-2.13.23-1.07,2.1-2.43,4.24-3.81,6.42-.71,1.08-1.39,2.17-2.08,3.25-.34.54-.69,1.08-1.01,1.62-.32.54-.64,1.08-.95,1.61-.31.53-.61,1.06-.9,1.58-.28.53-.54,1.05-.78,1.56-.24.51-.47,1.02-.68,1.51-.1.25-.2.49-.29.74-.09.25-.17.49-.25.73-.31.96-.52,1.87-.61,2.73-.09.86-.03,1.67.16,2.4-.51.61-.31-.4-.83.22l-.56,1.83-.52,1.84-.52,1.83-.48,1.85c.65.78,1.15,2.56,2.45,1.7-.16.4-.25.82-.31,1.25-.05.43-.08.88-.11,1.34-.04.46-.09.95-.2,1.45-.11.51-.28,1.04-.53,1.6-.91,2.97-1.39,3.02-1.81,2.56-.43-.46-.79-1.43-1.47-.46-.87,3.88-1.68,7.9-2.46,11.98-.76,4.08-1.43,8.23-2.05,12.36-.15,1.03-.3,2.06-.45,3.09-.14,1.03-.28,2.06-.42,3.08-.14,1.02-.25,2.05-.39,3.06-.06.51-.14,1.01-.2,1.52-.06.51-.12,1.01-.18,1.51-.26,2.01-.46,4-.7,5.95-.19,1.96-.43,3.88-.61,5.76-.35,0-.64.25-.89.74-.12.24-.24.54-.34.89-.1.35-.18.74-.26,1.18-.14.88-.25,1.92-.31,3.07-.05,1.16-.05,2.42-.02,3.75.05,1.33.13,2.71.23,4.09.07.69.13,1.38.2,2.07.04.34.07.68.11,1.02.03.34.07.67.12,1.01.09.67.18,1.32.27,1.95.09.63.17,1.24.27,1.83.2,1.17.38,2.23.54,3.14,0,.92.06,1.85.14,2.79.04.47.08.93.13,1.4.06.47.12.94.2,1.4.15.94.31,1.88.51,2.81.21.93.43,1.87.66,2.8.98,3.72,2.26,7.38,3.64,10.86,1.38,3.49,2.8,6.81,4.08,9.91.62,1.56,1.24,3.05,1.76,4.5.25.73.52,1.43.75,2.12.23.69.44,1.37.62,2.04-.94-1.38-1.9-3.09-2.71-4.93-.85-1.82-1.56-3.77-2.23-5.55-.32-.9-.62-1.76-.91-2.55-.15-.4-.29-.77-.43-1.13-.13-.36-.26-.7-.39-1.01-.51-1.25-.99-2.11-1.47-2.31.09,1.02.18,2.05.28,3.07.91,3.31,2.13,7.6,3.7,11.4.19.48.39.94.6,1.4.2.46.41.9.61,1.34s.41.86.62,1.27c.21.41.43.8.64,1.17.42.75.84,1.43,1.25,2.01.41.59.83,1.07,1.22,1.46-.26-.91-.42-1.63-.5-2.22-.08-.59-.1-1.03-.08-1.41.02-.75.17-1.21.18-1.88.79,1.3,1.37,2.01,1.95,2.81.59.8,1.23,1.68,2.13,3.31.64,1.21,1.3,2.44,1.88,3.62.61,1.17,1.18,2.29,1.63,3.27.94,1.95,1.47,3.35,1.1,3.54-1.8-2.43-3.16-5.37-4.48-7.78-.69-.24.06,1.82,1.28,4.25,1.2,2.44,2.85,5.25,3.62,6.67-.34-1.45,0-1.76.55-1.63.55.14,1.31.72,1.88,1.05.57.34.96.43.8-.42-.16-.85-.91-2.61-2.4-6.09l1.1,1.77c.36.59.72,1.18,1.11,1.76l1.13,1.74.56.87.58.86c1.2,1.13,1.01.23.26-1.6-.36-.93-.86-2.08-1.41-3.33-.26-.63-.53-1.29-.81-1.95-.14-.33-.27-.66-.41-.99-.07-.16-.14-.33-.2-.49-.06-.17-.13-.33-.19-.5-.25-.66-.5-1.3-.72-1.91-.22-.61-.43-1.19-.59-1.73-.33-1.07-.55-1.93-.59-2.44-.08-1.02.59-.63,2.49,2.34,1.14,1.03.97-.96,3.35,3.11-.1-.67-.29-1.47-.56-2.31-.13-.42-.28-.86-.44-1.29-.17-.43-.33-.87-.5-1.31-.35-.87-.72-1.7-1.09-2.43-.36-.74-.7-1.37-1-1.81.12-1.95-1.46-6.63-2.61-11.03-.31-1.09-.55-2.18-.77-3.2-.11-.51-.21-.99-.29-1.46-.07-.47-.13-.91-.17-1.32-.08-.83-.1-1.53,0-2.06.09-.54.29-.9.6-1.05-.3-.76-.58-1.5-.84-2.23-.13-.36-.24-.72-.35-1.08-.11-.36-.21-.71-.3-1.06-.19-.7-.37-1.37-.5-2.04-.13-.67-.25-1.33-.35-1.97-.39-2.58-.43-4.98-.32-7.34.12-2.37.39-4.7.65-7.16.06-.61.13-1.24.19-1.88.06-.64.12-1.28.17-1.94.04-.66.11-1.34.15-2.03.05-.69.06-1.4.08-2.13.06-1.85.06-3.31.07-4.47,0-1.16-.06-2-.12-2.62-.14-1.23-.45-1.54-.85-1.53-.4.02-.88.37-1.37.45-.49.08-.98-.1-1.42-1.18.58-3.77.63-7.5.5-10.91-.03-.85-.07-1.68-.12-2.48-.03-.4-.06-.8-.09-1.18-.03-.39-.05-.77-.07-1.14-.05-.74-.11-1.45-.17-2.12-.06-.67-.09-1.3-.12-1.88.22-2.06.82-3.66,1.32-4.39.51-.74.97-.61,1.02.78l.37-1.4c.12-.47.26-.93.39-1.39l.39-1.39c.13-.46.26-.93.4-1.39.28-.92.56-1.84.84-2.76.29-.91.59-1.83.88-2.74,1.19-3.65,2.47-7.25,3.85-10.81,1.37-3.56,2.85-7.07,4.4-10.52l.59-1.29c.2-.43.39-.86.59-1.29l1.21-2.57,1.25-2.54.31-.64.33-.63.65-1.26.65-1.26.67-1.24.67-1.25.33-.62.34-.62,1.37-2.47,1.41-2.44.35-.61.36-.6.73-1.2.73-1.2.75-1.19.74-1.19.37-.6.38-.59,1.52-2.36,1.57-2.32.39-.58.4-.57.81-1.15.8-1.15.83-1.13.82-1.13c.27-.38.54-.76.82-1.12l1.67-2.21c.56-.73,1.14-1.45,1.71-2.17.29-.36.57-.73.86-1.08l.88-1.06c.59-.71,1.16-1.43,1.77-2.12.6-.47,1.18-.95,1.75-1.44l.42-.37.42-.37c.28-.24.55-.49.82-.74.54-.5,1.06-1.01,1.59-1.52.53-.5,1.04-1.01,1.55-1.53.25-.26.5-.52.75-.78.25-.26.51-.51.76-.77.5-.51,1.01-1.03,1.5-1.55.5-.52,1.01-1.02,1.51-1.53l.75-.76.38-.38.39-.37c.52-.49,1.04-.98,1.56-1.47.26-.24.52-.49.79-.72l.82-.69c.55-.46,1.1-.91,1.67-1.35.57-.43,1.16-.84,1.76-1.25,1.18-.83,2.45-1.54,3.75-2.21.65-.34,1.34-.62,2.04-.9.7-.27,1.4-.53,2.14-.75-.66.19-1.3.4-1.95.6-.24-.09-.1-.4.21-.8.15-.2.35-.42.55-.65.2-.23.43-.45.64-.67-.25.06-.51.13-.76.19-.25.07-.5.14-.74.2-.5.13-.99.26-1.48.39-.5.13-.99.25-1.47.38-.48.13-.96.26-1.44.39.36-.25.73-.5,1.09-.75l1.1-.73c.74-.49,1.46-1,2.19-1.49.73-.49,1.46-.99,2.17-1.5.35-.26.71-.51,1.07-.77.36-.26.71-.51,1.06-.78.09-.3.24-.6.43-.91.1-.16.2-.32.32-.48.12-.16.25-.32.39-.48.57-.64,1.3-1.31,2.14-2,.85-.67,1.82-1.35,2.85-2.05,1.04-.67,2.13-1.36,3.24-2.05,4.45-2.72,9.16-5.23,10.84-7.64.28-.13.56-.25.83-.38.27-.12.54-.23.81-.34.53-.22,1.03-.43,1.51-.63.96-.41,1.84-.73,2.65-1.03.4-.15.79-.29,1.15-.42.18-.07.36-.13.54-.2.18-.06.35-.12.52-.17.67-.22,1.28-.42,1.84-.59,1.11-.36,2.04-.58,2.85-.78.41-.1.79-.18,1.16-.26.19-.04.37-.08.55-.12.18-.03.36-.07.54-.1,1.44-.27,2.88-.55,5.17-1.08,1.13-.29,2.49-.6,4.15-1.04.41-.11.85-.22,1.31-.33.46-.12.94-.24,1.44-.36.25-.06.51-.13.77-.2.13-.03.26-.07.4-.1.14-.03.27-.07.41-.1.55-.14,1.13-.28,1.73-.43,4.99-2.01,10.6-3.99,16.62-5.49.38-.1.75-.19,1.13-.29l.57-.14.57-.13c.77-.17,1.53-.34,2.31-.51.77-.18,1.55-.31,2.34-.45.39-.07.78-.14,1.18-.21.39-.07.79-.14,1.18-.2,1.58-.24,3.18-.49,4.78-.65l1.2-.13.6-.06.6-.05,2.42-.18c2.34-.15,4.58-.06,6.13.14.78.1,1.38.21,1.74.33.36.12.48.25.28.36.7-.05,1.44-.1,2.21-.15.38-.02.78-.05,1.18-.07.4-.01.8-.03,1.21-.04.82-.02,1.66-.06,2.51-.07.85,0,1.71-.01,2.58-.02,3.46,0,6.95.12,9.87.33.79,0,1.53,0,2.21.01.69.02,1.32.03,1.92.03.59,0,1.14,0,1.63.02.5,0,.95.02,1.36.03.82.01,1.47,0,1.96-.01.49-.01.82-.03,1.02-.08.39-.09.23-.24-.34-.45-.57-.22-1.57-.45-2.83-.73-1.26-.3-2.81-.54-4.48-.85-.84-.14-1.71-.26-2.59-.39-.44-.06-.89-.13-1.34-.19-.45-.05-.9-.11-1.35-.16-.9-.1-1.8-.22-2.68-.31-.88-.08-1.74-.16-2.56-.23-.82-.08-1.6-.11-2.33-.16-.73-.04-1.4-.08-1.99-.11Z"/>
      <path class="st1" d="M3.45,151.65c-.38-.31-.75-.11-1.09.4-.34.51-.65,1.33-.95,2.26-.14.47-.29.96-.42,1.46-.12.5-.24,1-.36,1.47-.23.96-.44,1.82-.64,2.39l.42,3.16c.01.24.02.48.04.71.02.23.04.45.06.67.04.43.09.83.14,1.21.1.75.22,1.38.35,1.91.27,1.05.59,1.67.9,1.89.32.22.64.04.94-.49.15-.27.3-.62.43-1.06.14-.44.28-.96.41-1.56-.33-.46-.57-1.32-.74-2.42-.14-1.1-.2-2.44-.21-3.86.02-1.42.1-2.91.22-4.32.14-1.41.31-2.73.49-3.81Z"/>
      <path class="st1" d="M19.03,91.29l1.15,1.72.91-2.21c.15-.37.31-.74.47-1.1l.48-1.1c.32-.73.63-1.46.96-2.19l1-2.17c-.56-.16-1.39.78-2.28,2.19-.88,1.41-1.85,3.25-2.68,4.87Z"/>
      <path class="st1" d="M48.42,273.9c-2.6-3.3-4.15-5.8-5.75-8.33-.39-.64-.78-1.28-1.18-1.95-.2-.33-.41-.67-.62-1.01-.22-.34-.42-.7-.64-1.06-.44-.72-.91-1.48-1.42-2.28-.5-.81-1.04-1.68-1.64-2.61-.15.73-.28,1.46-.4,2.19.26.48.5.97.77,1.44.27.48.54.96.81,1.44.27.48.55.96.82,1.45.28.48.57.96.86,1.44.59.96,1.17,1.94,1.81,2.89.32.48.64.96.96,1.44.16.24.32.48.49.72.16.24.34.48.51.72.34.47.69.95,1.04,1.43.35.48.7.97,1.07,1.43.74.94,1.49,1.9,2.28,2.85.8.93,1.62,1.88,2.47,2.82.86.93,1.74,1.86,2.65,2.8,2.8,2.2.63-.07-1.64-2.83-.14-.17-.29-.34-.43-.52-.14-.17-.28-.35-.42-.53-.28-.35-.55-.7-.82-1.04-.52-.68-1.01-1.29-1.36-1.81-.69-1.04-.92-1.6-.2-1.09Z"/>
      <path class="st1" d="M40.11,257.68c2.18,3.09,4.31,6.39,6.53,9.71,2.23,3.3,4.55,6.61,6.96,9.77.61.78,1.22,1.56,1.83,2.33.62.76,1.25,1.51,1.86,2.26.61.75,1.25,1.47,1.88,2.18.31.36.63.71.94,1.06.16.18.31.35.47.53.16.17.32.34.48.51.64.68,1.26,1.35,1.88,2.01.62.66,1.25,1.28,1.86,1.91,1.22,1.26,2.43,2.43,3.58,3.55-.5-.77-1.84-2.35-3.55-4.48-1.74-2.11-3.9-4.73-6.15-7.5-2.24-2.78-4.57-5.72-6.61-8.51-.51-.7-.99-1.4-1.46-2.07-.23-.34-.46-.67-.69-1-.23-.33-.43-.66-.63-.98-.81-1.29-1.54-2.48-2.05-3.58-.45-.65-.87-1.27-1.28-1.86-.4-.6-.79-1.18-1.16-1.75-.38-.57-.76-1.11-1.12-1.67-.36-.56-.72-1.12-1.09-1.69-1.47-2.28-3.01-4.77-4.95-8.24-.81-1.22-1.19-1.58-1.27-1.39-.08.2.15.96.54,1.99.1.26.2.53.32.82.12.28.25.58.38.88.27.6.56,1.24.85,1.86.29.63.6,1.24.89,1.81.29.57.56,1.1.79,1.55Z"/>
      <path class="st1" d="M71.1,296.52c1.22,1.14,2.65,2.41,3.36,3.05.47.37.08.09-.51-.47-.59-.55-1.42-1.33-1.92-1.84-.6-.58-1.68-1.61-2.2-2.06-.51-.46-.47-.33,1.27,1.31Z"/>
    </g>
  </g>
  <g>
    <path class="st0" d="M201.52,66.66c.1-.54.05-.79-.2-1s-.36-.7-.15-.75c-.05-.24-.66-1.16-.81-.86-.15.29-.3-.46-.2-1q.1-.55-.15-.75s-.25-.2-.36-.7c-.04-.25-.35-.7-.6-.91-.25-.2-.56-.66-.66-1.16l-.81-.86c-1.27-1.04-1.52-1.24-1.73-1.2l-.51-.41c-.3-.46-1.47-.99-2.99-1.18-.46-.16-.91-.32-1.12-.28-.05-.25-.25-.2-.46-.16-.2.04-.46-.16-.66-.12-.25-.2-.71-.37-1.12-.28l-1.57-.44c-.51-.42-1.62-.7-2.28-.81-.91-.32-1.57-.45-1.78-.41-.05-.24-.45-.16-.65-.12-.41.09-.66-.11-.66-.11-.3-.46-2.39-1.31-3.45-1.35-.41.09-.66-.11-.91-.32-.2.05-.46-.16-.66-.11,0,0-.86-.08-1.57-.45-.71-.38-1.17-.54-1.37-.49.05.24-.61.13-1.07-.03-.7-.38-1.56-.45-1.97-.37-.66-.11-1.07-.03-1.32-.23-.2.04-.61.13-.76.42-.15.29-.36.34-.61.13-.05-.24-.25-.2-1.02.22-.36.34-.76.42-.96.46-.25-.2-.46-.16-.61.13-.15.29-.51.63-.76.43-.41.08-1.32.8-1.17,1.54.1.5.95,1.61,1.36,1.53.2-.05.25.2.36.7.25,1.24-.51,2.71-1.47,3.17q-.61.13-.76-.62c-.1-.5-.15-.74-.36-.7-.15.29-.1.54,0,1.05.15.74.05,1.28-.25.83-.2.04-.46-.16-.86-.08-2.03.44-2.64.57-2.59.81.05.25-.56.38-.61.13-.1-.5-.86-.08-.96.47q-.15.28-.41.08c-.3-.46-.51-.41-.46-.16-.36.34-2.79.85-2.89.36,0,0-.05-.24-.25-.2q-.2.04-.15.29c.1.5.15.74-.3.58-.2.05-.46-.16-.46-.16-.05-.24-.25-.2-.2.05-.15.29-.3.58-.51.63-.25-.21-.41.08-.71.67q-.3.58-.56.38c-.46-.16-2.03.44-2.59.81-.15.29-.36.34-.41.08-.1-.5-.46-.16-.76.43q-.3.59-.56.38c-.05-.24-1.07-.03-1.02.22,0,0-.3.58-.86.96l-1.02,1.25q-.36.34-.86-.07c-.29-.46-.51-.42-1.68.09-.8.17-1.56.6-1.56.6-.16.29-1.23,1.3-1.84,1.43-.15.28-.36.34-.3.58.05.25-.36.34-.76.43l-1.73.88c-.76.43-1.52.84-1.68,1.14q-.61.13-.36.34c.2-.04.46.16.51.42-.2.04-.15.28-.15.28.05.25-1.42.3-1.62.36-.05-.25-.46-.16-.61.12-.86.96-1.98.69-1.27.01.15-.28.1-.54.05-.79-.19.05-1.27,2.09-1.22,2.35.05.24-.15.29-.76.42q-.66-.11-.51.63c.25.2.3.46.1.5-.2.05-.61.13-.96.47-.36.34-.56.38-.81.17-.3-.46-.66-.12-1.12.76-.25.83-.46.87-.76.42q-.25-.2-.76.43l-.51.63c-.2.04-1.12,1.8-1.07,2.04.05.25-.91,1.76-2.18,2.8l-1.17,1.55s-.15.29-.2.04c-.2.04-.36.34-.56.39-.15.28-.51.62-.56.38-.2.04-.36.34-.3.58l-.26.83c-.6.13-1.01.22-.91.72q.05.24-.41.08c-.29-.45-.5-.41-.6.13-.15.29-.51.63-.72.67-.45-.16-1.21.26-1.11.76.29.46-.01,1.04-1.08,2.04-.51.63-.71.67-.81.17q-.05-.24-.2.05l-.3.58c.05.25-1.57,2.68-1.98,2.76,0,0-.71.67-1.37,1.59-1.17,1.54-1.37,1.59-1.62,1.38q-.3-.45-.41.09c.05.24,0,1.04-.15,1.33q-.3.59-.81.17-.25-.2-.15.29c.25.2.1.5-.61,1.17l-1.02,1.26c-.15.29-.3.58-.51.62l-.15.29c.14.75-2.85,2.69-3.16,2.23l-.61.13c-.36.34-.3.58.36,1.74.05.25.1.5-.1.55-.2.04-.36.34-.56.38.05.25-.1.54-.1.54-.05-.24-.2.05-.3.59-.1.54-.46.87-.56.38-.05-.24-.25-.2-.66-.11-.15.28-.56.38-.61.12q-.25-.2-.36.34c.05.25-.25.84-.46.88-.15.28-.66.91-1.22,1.3l-1.07,1.01,1.07,1.07-.36.34-.51.63c.05.25-.15.29-.56.39-.61.12-.76.42-.91.71-.1.54-.46.87-.46.87-.41.09-2.19,2.8-2.3,3.35-.1.54-.71,1.71-.76,1.46-.25-.21-.71.67-.61,1.17.1.5-.56,1.42-.96,1.5-.2.04-.36.34-.3.59q.1.5-.15.29c-.25-.21-.61.12-1.07,1.01-.66.91-.61,1.17-.3,1.62.3.45.15.74-.05.78-.2.05-.25-.2-.05-.24-.15-.75-.56-.66-.91-.32-.76,1.46-1.42,2.38-1.63,2.43,0,0-.41.08-.56.38-.36.34-.41,1.13.1,1.53.25.21-.46,1.92-1.02,2.3l-.3.59c.05.25-.1.54-.46.88-.51.62-1.12,1.79-1.07,2.04s-.15.29-.15.29c-.41.08-1.02,1.26-.91,1.76l-.15.28c-.41.09-1.28,2.09-1.23,2.35.3.45-.36,1.37-.96,1.5l-1.02,1.26c-.25.83-.76,1.45-.76,1.45-.2.05-.15.29-.1.55-.15.29-.1.54-.3.58-.41.09-.61.13-.51.63.1.5-.36,1.38-.56,1.42-.46-.16-2.9,4.51-2.8,5.02.05.24-.15.28-.36.34,0,0-.51.63-.81,1.21-.46.87-.96,1.5-1.17,1.54-.36.35-.3.59-.15,1.34.15.74,0,1.04-.46,1.91-.3.59-.66.92-.66.92-.2.04-.51.63-.96,1.5-.46.88-.57,1.42-.47,1.92q.15.75-.1.54c-.25-.2-.66-.11-.56.39.05.24-.1.54-.25.83-.56,1.41-.96,2.54-.91,2.79l-.3.58c-.15.29-.3.59-.25.83.05.25-.25.84-.56,1.42-.3.59-.56,1.42-.51,1.67,0,0,.04.25-.15.29-.2.05-.47,1.92-.42,2.17.25.2.05.24-.3.58-.61.13-1.02,1.26-.66,1.96,0,0-.1.54-.46.87-.51.63-1.22,3.38-1.28,5.21.05,1.29-.66,3.01-1.42,3.42q-.15.29.15.75l.81.86c.51,1.45.56,1.71.76,1.66.2-.04.24.21.61.91.35,1.75,1.82,4.8,2.33,5.22.25.2.56.66.66,1.16.19,1,1.72,3.27,1.92,3.23.2-.04.25.2.25.2.05.25.1.5.3.46s.25.2.3.46c.05.24.3.46.36.7.2-.04.46.16.25.2.05.25.1.51.36.71.24.2.55.66.85,1.12.3.45.56.66.76.61.2-.04.46.16.51.42.2,1,.81,1.91,1.22,1.82-.05-.24.51.42.86,1.12.56.66.9,1.36,1.11,1.32-.05-.24.2-.04.51.42.1.5.46,1.2.91,1.36l.56.66c.05.25.36.7.81.86.51.42.81.87.86,1.12.1.5.61.91,1.16,1.57l.86,1.12c.05.24.56.66,1.12,1.32.51.41,1.02.82,1.07,1.07.05.25.3.46.51.42.41-.08.71.37,1.07,1.08.09.5.45,1.2.65,1.16.2-.05.66.12,1.27,1.03.61.91,1.22,1.82,1.98,2.44.25.2.51.42.56.66l.85,1.12c.51.42.81.86.86,1.12,0,0,.25.2.46.16l.51.42c.05.24.3.45.76.61.46.16.76.62.81.87.1.5.61.9.76.61,0,0,.25.21.46.16.25.21.51.42.71.38,0,0,.2-.05.25.2,0,0,.3.46.7.37q.51.42,1.42-.3l.76-.42.51.41c.76.62,1.17.54,1.98-.68.51-.63.46-.87.15-1.33l-1.67-5.1-1.01-2.9c-.05-.25-.41-.95-.66-1.16-.25-.21-.41-.95-.71-1.41-.15-.75-.46-1.2-.66-1.16-.41.09-.66-.12-1.12-1.32-.15-.75-.55-1.71-.8-1.91-.56-.66-1.57-2.52-1.68-3.02-.1-.51-.41-.95-.61-.91-.25-.2-.51-.41-.56-.66.15-.29-.1-.5-.35-.7-.47-.16-.51-.42-.41-.95.15-.29,0-1.05-.2-2.04-.46-1.2-.51-1.45-.15-1.79.51-.63.36-1.37-.25-2.28-.6-.9-.8-.86-1.56-.44-.15.28-.41.08-.66-.12-.1-.5.86-.96,1.57-1.63.51-.63.76-1.46.41-2.16-.3-.46-.15-.75.66-.92.15-.29.76-.43.91-.71l.61-.13-.56-.66q-.51-.42-.41-.95c.15-.29,0-1.04-.4-3.04l-.61-2.99c-.2.04-.05-.25.15-.29.15-.29.1-.54-.05-1.29-.15-.74,0-1.04.2-1.08.2-.05.56-.39.91-.72.3-.58.51-.63.2-1.09-.35-.7-.29-1.49.06-1.83.15-.28.1-.54.05-.79-.05-.24.1-.54.46-.87.15-.29.3-.58.25-.83s.1-.54.3-.59c.15-.28.3-.58.15-1.33-.05-.24.05-.79.05-.79.2-.04.36-.34.3-.58l.3-.59c.2-.04.36-.34.25-.83.05-.79.21-1.09.42-1.13.15-.28.3-.58.25-.83-.05-.24.1-.54.05-.79,1.56-2.61.35-4.64,1.37-5.75.8-.85.97-1.35,1.03-2.3.05-.79.2-1.08.25-.83.41-.09.46-.87.41-1.13-.2.04-.05-.24.1-.54-.05-.25.1-.54,0-1.05-.05-.24,0-1.04.1-1.57.15-.29.2-1.09.25-1.88,0-1.04.41-2.16.86-2,.46.16.76-.43.97-1.5.1-.55.41-1.13.41-1.13.41-.09.41-1.13-.05-1.29-.2.04-.41-.95-.2-1l.41-.09c.2-.04.3-.58.2-1.08-.1-.5.05-.79.61-1.18.56-.38.71-.67.61-1.17-.1-.5.1-.54,1.12-.75q1.22-.26,1.83-1.43c.46-.87.41-1.13.26-1.88-.3-.45-.36-.7.05-.78,0,0,.56-.39.66-.92.3-.59.66-.92.86-.96.25.2.61-.13.76-.43.15-.28.3-.58.51-.62.2-.04.36-.34.2-1.09-.05-1.29.3-2.66,1.27-3.13.15-.29.56-.38.51-.63l.61-.13c.41-.08.81-.17.96-.46.3-.59.71-.68.86.07.1.5.56.66.51.42.15-.29.36-.35.56-.39.41-.08.46-.87,0-1.04-.25-.2-.3-.46-.1-.5.15-.29.36-.34.41-.09q.25.21.2-.04l-.1-.5c0-1.05.97-2.55,1.63-2.43.24.2.4-.08.36-.34.05-.79.41-1.13.51-.63.05.25.41-.08.56-.38.3-.59.46-.87.2-1.09-.25-.2-.3-.46.2-1.08.3-.59.66-.92.91-.72.2-.04.41-.08.36-.34-.05-.24.25-.83.56-1.41.3-.59.61-1.18.56-1.42,0,0,.36-.34.76-.43.41-.08.81-.17.76-.42-.05-.25.15-.29.36-.34q.41-.09.3-.59c-.25-.2-.1-.5.46-.87l1.02-.22c.36-.34.51-.62.3-1.62-.35-.7-.19-1,.1-.54.56.66,1.07.03,1.48-1.1.41-1.12.71-1.71,1.02-1.25.05.24.65.12.61-.13-.05-.25.1-.54.2-1.09q.3-.58.1-.54c-.36.34-.41.09-.51-.42q-.15-.74.25-.83c.05.25.46.16.61-.12.36-.35,1.07.03.76.61l.46-.87c-.05-.25.46-.87.91-1.76.86-.96.81-1.21.41-1.13-.2.05-.46-.16-.51-.41.2-.04.1-.54.05-.79-.1-.5.1-.54.71-.67.81-.17,1.27-.01,1.42.73.2,1.01.61-.12.61-1.17l-.14-1.79c.14-.28.25-.83.05-.79-.2.05-.25-.2-.1-.5-.1-.5.51-.62,1.42-.29.46.16.81-.17.66-.92-.2-1-.05-1.29.71-.67.51.41.96.57.91.32.15-.29,1.07.03.96.57,0,0,.04.25.24.21.61-.13.76-.43.77-1.46-.2-1,.05-1.83.46-1.92.2-.04.3.46.25,1.25.14,1.79.6,1.95,1.16.53.72-1.72,1.03-2.3,1.28-2.09.05.25.25.2.2-.04.15-.29.41-.09.86.07.24.21.5.42.46.16q.19-.04.24.21s.05.24.25.2c.2-.04.15-.29.05-.79q-.14-.75.52-.63c.6-.13.96-.47,1.32-1.84.15-.29.3-.59.36-.34.2-.04.15-.29.3-.59-.05-.24.1-.54.15-.29.46.17,1.68-.09,1.62-.35.2-.04.56-.38.81-.17.61-.12,1.02-.21,1.17-.51.15-.29.51-.63.71-.67s.36-.34.3-.58c.1-.55.2-1.09.56-1.42.36-.34.46-.87-.05-1.29-.66-.12-.86-1.12-.66-1.16.2-.04.36-.34.51-.63-.05-.24.15-.29.2-.04,0,0,.25.2.46.16.25.2.51.41.56.66q.15.74.76.62l1.62-.35c.2-.05.36-.34.3-.59l.15-.29c.46.16.25-.83,0-1.04s-.3-.46-.36-.7q.15-.29.61-.13c.25.2.56.66.61.9.05.25.1.5.3.46.2-.04.81-1.21.76-1.46l.51-.63q.36-.34.61-.12c.05.24.25.2.41-.09l.61-.13c.2-.04.36-.34.25-.83-.15-.74-.25-2.28-.09-2.58.19-.04.45.16.7.38.3.46.51.41,1.12.27.76-.42.81-.17.91.32,0,1.05.25,1.25.76.62.66-.91.86-.96.86.08q.1.5.51.41c.15-.29.76-.42.91-.71.41-.09.56-.39.51-.63,0,0,.1-.54.46-.87q.56-.39,1.07.03c.3.46.51.41.46.16.15-.29.36-.34.41-.09.2-.04.41-.08.56-.38.15-.29.36-.34.3-.58l1.02-.22q.56-.38.81.87c.1.5.25,1.24.1,1.53.1.5.04,1.29.19,2.03l-.2,2.12c-.1.55-.2,1.09-.15,1.34.05.24-.1.54-.25.83l-.15,1.33.45,2.24c-.1.54-.05,1.83.05,2.33-.1.54-.1,1.58-.05,1.83.1.5,0,2.08-.15,3.41-.01,2.08-.06,2.87.19,3.08s.3.46,0,1.04c-.36.34-.51.63-.46.88.25.2.05,1.29-.15,1.33,0,0-.05.79.1,1.53.15.75.14,1.79.04,2.34.1.5-.05.78,0,1.04.1.5.1,1.53-.05,1.83-.15.29-.05.79.05,1.29.1.5,0,1.04-.15,1.33.1.5,0,1.04.1,1.54.09.5.04,1.28-.06,1.83-.25.83-.3,2.66-.2,3.16.05.25-.1.55-.1.55-.15.28-.3,1.61-.11,4.69.1,1.54.15,2.83-.05,2.87-.15.29-.1.54-.05.79.05.24-.1,1.57-.3,2.66-.11,1.58-.31,2.66-.11,3.67v2.07c-.25.83-.36,3.45-.06,5.99-.05.79,0,2.08-.15,2.38-.41,1.12-.46,3.99-.37,4.49.25.2.1.5.1.5-.15.29-.3.59-.2,1.09.1.5.15.74-.05.79-.2.04-.15,1.33-.05,1.83l-.2,1.09c-.15.28-.15,1.33-.25,1.87l-.21,2.12c.05.25-.1,1.58-.05,2.87s-.15,2.37-.1,2.62c-.61,1.17-.97,4.62-.77,6.65.05,1.29,0,2.08-.15,2.38-.56.38-.42,2.16.04,2.33q.25.21.15.75c-.51.63-.91,1.75-1.07,3.09.1.5-.15,1.33-.25,1.87l-.2,2.12-.06,1.83c-.15.29-.36,2.42-.25,2.91.05.25-.1.55-.05.79-.36.34-.76,2.5-.62,4.29,0,1.05,0,2.08-.1,2.63-.15.28-.25.83-.2,1.08.05.25-.1.54-.25.83.05.25-.15,1.33,0,2.08l-.05,1.83c-.16.29-.11.55-.01,1.05.05.24.1.5-.1.54-.15.29.15,1.79.36,1.75q.25.2.05.24s-.15.29.05.25c.05.24-.1.54-.25.83-.56.38-1.27,2.09-1.07,3.09l-.51,1.67c-.21,1.08-.31,1.62-.16,2.37q.15.75-.05.79c-.2.04-.3.59-.25.83.05.25.1.5-.1.55-.2.04-.41,2.16-.51,2.7.2,1,.25,1.25-.16,1.33-.35.35-.71,1.72-.86,3.05.1.5-.15,1.33-.25,1.87-.15.29-.25.84-.2,1.09q.05.25-.15.29c-.2.04-.46,1.92-.2,2.12.3.46.35,1.75.09,1.53-.46-.16-.96,1.51-1.02,2.31.1.5,0,1.04,0,1.04q-.2.04-.15.29c.05.24-.05.78-.15,1.33l-.05,1.83c.1.5,0,1.04-.3,1.62-.36.34-.47.87-.37,1.37-.1.55-.15,1.33-.3,1.62-.36,1.38-.41,2.17-.1,2.62.3.46.15.75-.15,1.34-.1.54-.25.83-.46.87q-.2.04,0,1.04l-.31.59c.05.24-.05.79.05,1.29-.1.54-.2,1.08-.36,1.37-.2.05-.3.59-.05.79,0,0-.15.29-.1.54-.2.05-.36.34-.3.59.2,1,.25,1.25.05,1.29-.2.04-.36.34-.15.29.05.24-.05.79-.25.83-.36.34-.61,1.17-.71,1.71-.1.55-.41,1.13-.41,1.13l-.26.83-.2,1.09c-.2.04-.36.34-.46.87.1.5-.1,1.58-.41,2.16-.3.59-.36,1.38-.3,1.63.05.24-.1.54-.25.83-.41.08-.36.34-.3.58.3.46-.26,1.88-.66,1.96-.2.04-.67,3.01-.52,3.75l-.3.59v1.04c-.15.29-.3.59-.51.63q-.41.09-.1.54c.05.25.1.5-.1.55-.2.04-.15.28.15.74q.15.75-.3.59t-.76.42c-.36.34-.42,1.13-.57,1.42-.1.54-.2,1.09-.61,1.17-.15.29-.51.63-.46.88l-.25.83s-.3.58-.2,1.08c-.15.29-.41,1.13-.76,1.46l-.51.63s-.15.29-.36.34c-.15.29-.3.59-.1.54.1.51-.15,1.34-.76,1.46-.56.39-1.22,1.3-1.12,1.8.05.25.25.21.41-.08q.2-.05.05.24-.3.59-.01,1.05c.56.66.25,1.24-.15,1.33-.46-.16-.81.17-1.12.75-.3.59-.41,1.13-.36,1.38.05.24-.1.54-.25.83-.2.04-.36.34-.3.59l-.15.28c-.2.05-.36.35-.3.59.1.5,0,1.04-.41,1.13-.15.29-.25.83-.2,1.09.05.24.1.5-.3.58-.61.13-1.69,2.17-1.38,2.63.05.25-.15.29-.56.38-.41.09-.56.39-.86.96-.1.55-.46.88-.66.92,0,0-.41.09-.56.38l-1.27,1.06c-.2.04-.56.38-.91.71-.15.29-.51.63-1.32.8-.46-.16-1.02.21-1.17.51-.36.34-.96.47-1.27.01-.05-.24-.25-.2-.46-.16.05.25-.41.09-1.07-.03-.71-.37-1.37-.49-1.98-.36-.95.47-2.27.22-2.73.06-.05-.24-.25-.2-.46-.16-.2.04-.41.09-.46-.16-.05-.25-1.17-.53-1.98-.36l-.91-.32c-.05-.25-.25-.21-.51-.42-.41.09-.66-.12-.66-.12-.05-.24-.25-.2-.46-.15-.2.04-.66-.12-.91-.34-.3-.45-.96-.57-1.17-.53l-.95-.57c-.25-.21-.66-.12-.66-.12-.15.29-.61.13-.86-.08l-.81-.86c-.51-.42-.71-.37-1.32-.23q-.76.42-.86-.08-.1-.5-.46-.16-.41.09-.51-.41c-.15-.75-.86-1.12-1.52-1.24l-.61.13c-.41.08-.86-.08-1.16-.54-1.93-1.15-2.44-1.55-2.49-1.81l-.25-.2c-.25-.2-.51-.42-.61-.91-.3-.45-.56-.66-1.22-.77q-.91-.32-1.06-1.08c-.05-.24-.36-.7-.61-.91-.25-.2-.56-.66-.41-.94-.1-.5-.36-.71-.91-.32-.15.28-.41.08-.56-.66-.1-.51.05-.79.05-.79.2-.04.36-.34.25-.83l-.3-1.5c.1-.54-.2-1-.85-2.15-1.52-2.27-1.98-2.44-3.2-2.17-.61.13-1.22.25-1.37.55l-1.02.21c-.86-.07-.96.47-.25.83.3.46.3,1.5-.2,2.13-.15.28-.3.58-.05.78q.05.25-.15.29c-.25-.2,0,0,.3.46.51.41.56.66.41.95l.14,2.82c.61,2.99.66,3.24.56,3.78-.25.83.95,1.61,2.17,1.36l.81-.17.51,1.44c.15.75.46,1.21.66,1.17.41-.09.81,3.98.45,5.36q-.1.54.15.74c.46.16.86.08.81-.17q-.05-.24.15-.29c.2-.04.25.21.36.71.05.24.3.45.51.41.2-.04.46.16.71.37.1.5.81.87,1.27,1.04q1.17.53,1.21,1.82c.25,1.25.81,1.91,1.78,1.44.56-.38,1.02-.22,1.12.28-.15.28,1.17.53,1.32.23-.05-.24.15-.29.61-.13.46.16.71.37.81.87.2,1,.46,1.2,1.27,1.03.41-.09.86.07.9.32l.56.66c.25.2.81.86,1.17,1.57.3.45.86,1.12,1.32,1.28.46.16.71.37,1.02.82.61.9,1.82,1.69,1.41.73-.24-.2-.09-.5.11-.54.61-.13.9.32,1.11,1.32q-.1.54.36-.34c.3-.59.81-1.22.81-1.22.2-.04.3.46.41.95s.15.75.56.66c.2-.04.41-.08.46.16l.61-.12c.2-.05.46.16.51.41q.05.25.25.2l.61-.12c.2-.05.36-.34.3-.59s-.05-.25.2-.04c.3.46.51.41.86.07.56-.38.96-.47,1.12.28.1.5.61.91,1.02.82.15-.29.36-.34.61-.13q.25.21.2-.04c-.1-.5.56-.38.86.08.25.2.46.16.86.07.15-.29.41-.09.46.16.29.46,1.31.24,1.56-.6.11-.54.56-.38,1.17.54.3.46.61.9.81.86,0,0,.56-.38.86-.96.46-.87.66-.92.76-.42q.25.2.41-.09.3-.59,1.02-.21l.51.41.1-.54c-.15-.75.25-.83.41-.09.2,1,.46,1.21,1.88.9.86.07,1.47-.05,1.68-.1q.25.21.2-.04c-.05-.24.86-.96,1.12-.75.3.45.41-.09.1-.55-.36-.7.1-.54.66.12.3.46.36.7,1.12.28.61-.13.96-.47,1.27-1.06.51-.63.66-.91.71-.67.25.21.3.46.1.5-.1.55,2.07.86,3.1.64.15-.29.75-.42.96-.47q.6-.12.51-.62c-.25-.21-.3-.46-.15-.75q.15-.29.61-.13l.95.58c.51.41,2.03-.44,2.49-1.31l.52-.63q.36-.34.41-.09c.19,1.01,2.33,1.07,2.58.23.2-.04.36-.34.56-.38.2-.05.36-.35.71-.68l.51-.62.56.66c.46.16.71.37.66.11,0,0,.15-.28.56-.38.41-.08.56-.38.05-.79-.51-.41-.81-.86-.41-.95l.51.42c.3.46.81-.17.86-.96-.05-.24.11-.54.15-.29.05.25.86.08,1.02-.21-.05-.25.31-.59.47-.87.41-.09.56-.39.51-.63-.05-.25.15-.29.36-.34.41-.09,1.17-1.55,1.42-2.39.15-.29.1-.54.3-.59.25.21,3.81-6.27,3.71-6.76-.1-.5.05-.79.25-.83.21-.04.57-.38.71-.67.16-.29.31-.59.52-.63q.2-.04.15-.29s.1-.54.41-1.13c.3-.58.41-1.13.36-1.37-.05-.25.51-1.67.91-1.76.2-.04.41-.08.36-.34l.51-.63.61-1.17c-.1-.5.25-.83.46-.87l.3-.59c-.05-.24.71-1.71,1.64-3.46.1-.54.36-1.37.3-1.62.1-.54.25-.83.46-.87.25.2.41-.09.51-.63-.05-.25.2-1.09.51-1.67l.46-1.92c.1-.54.2-1.09.41-1.13l.46-.87c.21-1.09.26-1.88.72-2.75.3-.59.41-1.13.36-1.38-.25-.2-.05-.24.15-.28.46.16.96-1.51.91-2.8.1-.54.25-.83.46-.87.36-.34.81-2.25.67-3-.05-.25.1-.55.3-.59.15-.29.3-.58.2-1.09-.1-.49.05-.78.41-1.12.51-.63.71-.68.56-1.42-.1-.5-.2-1,0-1.04.15-.29.3-.59.25-.83-.05-.25.05-.79.2-1.09.25-.83.16-2.38-.19-3.08q-.3-.46.1-.54c.41-.09.56-.39.71-.67-.05-.25.05-.79.2-1.09.15-.29.1-.54.05-.79-.2.04-.05-.24.1-.54.15-.29.3-.59.2-1.09-.1-.5-.15-.74.05-.79,0,0,.15-.28.05-.79-.1-.5,0-1.04.15-1.33.11-.54.26-.83.06-1.83-.15-.75-.2-1,.15-1.33s.1-1.58-.25-2.28c-.25-.2.15-.29.61-.13.25.2.41-.08.51-1.67.05-.79.3-1.62.41-2.16.31-.59.42-2.17.11-2.63-.2.05-.05-.24-.1-.5.15-.28.3-.58.2-1.08-.05-.25.1-.54.3-.59q.36-.34.25-.83c-.25-.2-.1-.5.25-.83.15-.29.3-.58.25-.83-.2-1-.25-1.25.15-1.33,0,0,.15-.29.11-.54-.1-.51,0-2.08.25-2.91.15-.29.25-.84.2-1.09,0,0-.05-.25.15-.29.2-.04.15-.29.05-.79-.05-.24-.15-.74,0-1.04l.15-1.33c.1-.54.16-1.33.11-1.58,0,0,.1-.54-.05-1.29.1-.54.15-1.33.3-1.62.3-.58.41-1.13.3-1.62v-1.04c.2-.04.25-.83.3-1.62-.2-1-.14-2.82.26-5v-1.04c-.05-.25.2-2.12.36-2.42,0,0,.15-.29.1-.54-.15-.75.26-2.91.62-3.25.2-.04.15-.29-.1-.5-.05-.25-.1-.5.1-.54l.2-1.09c-.1-.5-.05-1.29.1-1.58.15-.29.05-.79.05-.79-.25-.2-.1-.5-.05-.24.41-.09.92-2.79,1.03-4.38-.05-.25.05-.79.2-1.09l.15-1.33c-.05-.24.2-1.08.3-1.62.3-.58.41-1.13.36-1.37-.1-.5.15-1.33.56-1.42,0,0,.15-.29.1-.54-.09-.5-.14-.75.52-.63.4-.09.6-.13.56-.38-.15-.75.36-2.42.76-2.51.81-.17.86-.96.81-2.24-.1-.5-.25-1.25-.15-1.79-.05-.25,0-1.05-.1-1.54-.19-1-.24-1.24.16-1.33l.15-.29c-.05-.24-.1-.5.1-.54.15-.29-.15-2.82-.51-4.57-.15-.75-.51-1.45-.91-1.36-.41.08-.3-.46.01-1.05.15-.29.25-.83,0-1.04-.1-.5-.15-.75,0-1.05.51-.62.1-1.57-.76-2.69-.76-.62-1.02-.82-.96-1.61-.09-.5.06-.79.46-.87,1.02-.22,1.38-.56,1.23-1.3-.05-.25,0-1.05.15-1.33.3-.59.46-.88.05-1.84-.1-.5-.25-1.24-.05-1.29.1-.54.05-.78-.71-1.4l-.81-.87.51-.62c.31-.59.26-.84.01-2.08-.1-1.54,0-2.08.51-1.67.51.41.66.11.25-.83q-.15-.75.25-.84c.2-.04.36-.34.46-.87-.25-2.28-.14-2.82.11-3.66.1-.55.46-.88.66-.92,0,0,.15-.29.1-.54-.05-.25.05-.79.25-.83v-1.05c-.15-.74.1-1.57.51-1.67.41-.09-.3-1.49-1.07-2.11-.7-.37-.6-.91.25-.83,1.02-.21,1.27-1.06.47-2.96-.86-2.16-1.12-3.4-.91-3.44.2-.05.15-.29.05-.79q-.15-.75.51-.63.81-.17.86-.96c-.14-.74.42-2.16.82-2.25l.2-1.08c.05-.79.1-1.58.41-2.17.41-1.13.56-1.41-.1-1.53-.2.04-.25-.2-.3-.46.1-.54-.15-.74-.46-1.2-1.01-.82-1.16-1.57-.55-1.71.41-.08.61-.12.46-.87-.1-.5-.05-1.29.05-1.83.15-.29.2-1.09.15-1.34-.05-.24-.1-.5.1-.54.36-.34.56-2.46.42-3.21-.05-.24-.1-.49.15-.28.41-.09,1.02-1.26.86-2.01.15-.28.3-.58.51-.62q.41-.09.25-.83c-.36-.71-.2-1.01-.05-1.29v-1.05c-.1-.5,0-1.04.3-1.62.1-.54.2-1.08.11-1.57-.1-1.54-.1-2.58.05-2.87.2-.04.15-.29-.1-.5q-.25-.2.1-.54c.56-.39.51-.63.15-1.34-.05-.24-.15-.74.05-.78.15-.29.1-.55,0-1.05-.1-.5.05-.79.42-1.13.55-.38.51-.62.3-1.62-.36-.7-.41-.94-.1-1.53.15-.29.25-.83.05-.79-.05-.24-.1-.5.05-.79.2-.04.51-.62.61-1.17.05-.79.36-1.37.56-1.41-.05-.25.1-.55.1-.55-.05-.24.1-.54.2-1.09.15-.28.06-.78.21-1.08l-.36-1.75c.1-.54-.05-1.29.1-1.57.15-.29.05-.79.05-.79l.15-1.33-.1-.51c-.05-.24.05-.78.36-1.37l.11-1.58c-.05-.24.05-.79-.05-1.29.15-.28.25-.83.15-1.33-.05-.24-.1-.5.1-.54.3-.59.46-1.92.1-2.62-.15-.75-.2-1,.36-1.38.3-.58.86-.95,1.22-1.3.97-.46,1.23-1.29.97-1.5-.05-.24-.1-.5,0-1.04Z"/>
    <path class="st0" d="M324.78,41.07c-.1-.41-.19-.82-.4-.77-.05-.21-.35-.57-.65-.93-.35-.57-.4-.78-.19-.82.31-.51.38-1.18.12-1.34-.2.05-.29-.36-.44-.97-.45-.99-1.35-2.07-1.8-2.18-.2.05-.46-.11-.46-.11.1-.46-.59-1.6-.79-1.55,0,0-.51-.31-.85-.88-.29-.37-.69-1.14-1.15-1.25l-.89-1.09-.56-.53c-.2.05-.24-.15-.29-.36,0,0-.35-.58-.9-1.1-.5-.31-.8-.68-.84-.88l-.56-.52c-.75-.48-1.6-1.36-1.65-1.56-.1-.42-1.71-1.78-2.46-2.24-.46-.11-.76-.48-.76-.48-.04-.2-.29-.37-.55-.52l-.55-.53c-.05-.2-.1-.41-.3-.36,0,0-.45-.11-.95-.43-.29-.37-.75-.48-.95-.43,0,0-.25-.15-.3-.37-.35-.57-2.97-1.69-3.33-1.38q-.41.1-.5-.31c-.1-.42-.3-.37-.71-.26-.41.09-.86-.01-1.11-.17-.71-.26-1.37-.32-1.47.13.04.2.09.42.35.57l.14.62c.14.62-.48,1.63-.53,1.43-.2.05-.36.3-.67.81-.36.3-1.03,1.12-1.34,1.62l-.99,1.32c-.15.25-.36.3-.36.3-.25-.16-.81.19-.87.85.04.21-.47.77-1.04,1.12-.3.51-.67.81-.77,1.27.04.21-.11.47-.31.52-.2.04-.52.55-.99,1.32-.62,1.02-.77,1.27-1.43,1.21q-.41.09-.15.25t-.16.25l-.3.51c-.11.47-.26.72-.47.76l-.87.86c-.31.51-.79,2.14-.74,2.36.19-.05.04.2-.21.04-.2.05-.36.3-.51.56-.11.47-.26.72-.47.76-.2.05-.41.1-.37.3l-.51.56c-.37.3-.47.76-.43.97q.1.41-.3.51c-.25-.16-.41.09-.57.35-.47.76-.97,1.32-1.18,1.37-.2.05-.16.25-.11.47.25.15.09.41.05.2-.2.05-1.8,1.51-1.71,1.92l-.15.26c-.2.04-.41.09-.37.29,0,0-.3.52-.66.81-.37.3-.67.81-.83,1.07.05.21-.1.47-.1.47-.2.04-.77.4-1.24,1.16-.52.56-1.14,1.57-1.49,1.88-.37.3-.47.76-.26.72.29.36-.38,1.17-.99,1.32-.2.04-.41.09-.36.3.04.2-.31.51-.52.55-.36.3-1.04,1.12-1.34,1.62-.31.51-.62,1.03-.83,1.07l-.62,1.03c-.3.51-.82,1.07-1.19,1.36-.36.3-.66.81-.62,1.03,0,0-.1.46-.3.51-.37.29-.83,1.07-1.5,1.88l-1.87,3.06c-.26.71-.57,1.22-.73,1.47-.2.05-.36.3-.36.3.05.2-.26.71-.42.96-.37.3-.67.81-.63,1.03l-.15.25c-.2.04-.56.35-.72.6-.3.51-.47.76-.67.81,0,0-.36.3-.3.51-.16.25-.52.56-.72.61,0,0-.52.56-.99,1.32-.26.71-1.09,1.78-1.4,2.3-1.6,2.34-2.39,3.61-2.34,3.81.25.16.3.37.1.42q-.2.05-.25-.16c-.09-.41-.76.41-1.44,1.22-.1.46-.93,1.52-1.6,2.34-1.24,2.04-1.71,2.8-1.61,3.21,0,0-.15.25-.56.36-.15.25-.52.56-.82,1.07l-.99,1.32c-.37.3-.72.61-.67.81l-.63,1.02c-.56.36-.97,1.32-1.29,1.83-.52.56-1.03,1.12-1.34,1.62-.36.3-.47.77-.42.97l-.26.71c-.41.1-.52.56-.31.51l-.52.56c-.76.41-2.21,2.49-2.11,2.89l-.16.25c-.2.05-1.76,2.6-1.97,3.52-.2.04-.15.25-.37.29,0,0-.82,1.07-1.44,2.09-1.72,2.79-2.54,3.86-2.74,3.91-.16.25-1.3,1.83-1.4,2.3l-.62,1.02c-.2.04-.67.81-.99,1.32-.47.76-.58,1.22-.32,1.38q.1.42-.15.25c-.46-.11-.66-.06-.61.14.04.21-.43.97-.63,1.03-.2.04-1.04,1.98-.78,2.14.04.2-.11.46-.52.56-.37.3-.52.55-.43.96.05.2.1.42-.1.46-.46-.1-.97.46-.52.56.41-.09-.16,1.13-.57,1.23-.25-.16-1.24,1.17-1.3,1.83.05.2-.1.46-.3.51-.41.1-1.08.91-1.14,1.57l-.47.76c-.37.3-1.3,1.84-1.25,2.04.2-.05.05.2-.2.05q-.41.09-.26.71l.19.82c.05.21-.11.47-.87.86-.61.14-.77.4-1.04,1.12-.1.46-.21.92-.42.96-.15.25-.31.51-.06.67.05.2-.1.46-.26.71-.36.3-.51.56-.47.77,0,0-.15.25-.36.29q-.36.3-.26.72c.25.15.09.41.05.2-.2.05-1.34,1.62-1.83,3.26-.25.71-.57,1.23-.57,1.23-.41.09-3.01,4.63-3.18,5.75l-.16,1.13c.05.21-.15.25-.15.25-.2.05-.37.3-.16.26.05.2-.1.46-.26.71-.51.56-1.91,2.84-1.61,3.21.05.21-.1.47-.15.25-.2.05-.57.36-.67.81l-.53,1.43c-.11.46.24,1.03.69,1.14.21-.05.1.42-.21.92-.3.51-.42.96-.37,1.18.29.37-1.7,1.05-2.24.53q-.46-.11-.52.56l.04,1.08c-.15.25-.06.67-.01.87.05.21-.11.47-.26.72-.16.25-.47.76-.58,1.22-.06.67-.37,1.18-.37,1.18-.41.09-.95,3.27-.77,4.09q.1.42-.15.25-.25-.15-.41.1c-.16.25-.11.46-.06.67l-.21.91c-.42.97-.85,2.81-.6,2.98.2-.05.41-.1.56-.36.37-.3.57-.35.81-.19.2-.05.25.16-.1.46-.2.05-.57.36-.52.56q.05.21-.36.3c-.2.05-.61.14-.77.4q-.56.36-.21.92c.1.42.14.62-.06.67-.41.09-.53,1.43-.27,1.58q.3.37-.06.67-.1.46.24,1.03c.29.37.55.52.4.78-.2.04-.16.25.09.41.05.2.1.42-.1.46-.16.26-.11.47-.06.67.04.2-.11.47-.26.72-.16.25-.06.66.52,3.14.48,2.06.42,2.72.26,2.98-.21.05.12,1.49.38,1.66.2-.05.25.15.1.41-.2.05-.37.3-.31.51.25.16.46.11.41-.09.15-.25.3.37.68,2.01.39,1.65.53,2.26.22,2.77-.22.92.12,2.37.48,2.06.2-.05.29.37.34,1.44.28,1.24.39,1.66.83,1.76.25.16.3.37.24,1.04.28,1.24.97,3.25,1.47,3.56.71.26.65.93.28,1.23-.2.05-.36.3-.3.52.09.41.29.36.61-.15q.36-.3.5.31c.1.42.4.78.65.93.25.16.51.31.35.57q-.15.25.1.42c.25.15.35.57.4.77-.16.25-.11.47.09.42q.25.15.3.37c-.2.04-.41.09-.46-.11-.25-.16-.46-.11-.66-.06-.15.25.82,2.63,1.33,2.95.25.16.51.31.55.52.05.21.3.37.51.32q.25.15-.01.86c-.26.72-.22.92.03,1.09.3.36.51.31,1.32.12q.56-.36.41-.1c-.26.72.27,2.11.88,1.97l.25.15c.09.41,1.1,1.05,1.51.94q.2-.05.04.21-.36.29-.06.66l.56.53c.2-.05.24.15.35.56.05.21.29.37.55.53,0,0,.51.31.85.88.29.37.6.73.8.68,0,0,.5.31,1.06.83.35.57,1.05.84,1.55,1.16.66.06.95.43,1.06.83.35.57.6.73.8.68,0,0,.25.16.29.37,0,0,.05.2.25.15,0,0,.25.16.3.37.64.93,3.16,2.51,3.77,2.37.05.2.75.48,1.51.94.8.68,1.5.94,1.46.74-.05-.2.2-.05.45.11.6.72,3.63,2.62,4.03,2.52,0,0,.15-.25.1-.46-.09-.42.06-.67.52-.56.25.15.29.37-.06.66-.31.52.04,1.09.9,1.1l.5.31c.25.15.46.11.46.11.36-.3.41-.1.5.31.05.2.3.37.3.37.2-.05.46.1.5.31.25.15.3.36.51.31q.15-.25.2-.05c.05.2.6.73,1.01.63l1.01.63c.51.31,1.21.58,1.61.49.25.15.91.21,1.62.49.5.31,1.01.63,1.21.58l.5.31c.05.2.56.52,1.01.63.46.11.91.22.96.43.04.2.24.15.24.15.2-.04.66.07.91.22.3.37.55.52.75.48.25.15.71.26,1.37.32,1.87.64,4.14,1.19,4.55,1.09-.05-.2.2-.04.2-.04q.05.2.2-.05.15-.25.25.15c-.15.25-.11.47.5.31l.71.27c-.11.46,1.16.38,2.13-.07q.61-.15.66.06c-.16.25.14.61.84.88,1.67.69,4.4,1.34,4.76,1.04.2-.04.41-.09.45.11.05.21.66.06,1.12.17.61-.14,1.27-.08,1.32.12.5.31,1.77.23,3.2-.11.81-.19,1.02-.24,1.07-.03.04.2.5.31.95.43.41-.1,1.52.07,2.43.28,1.37.34,1.78.23,1.99-.69q.16-.25.61-.14c1.01.63,1.52.07,2.25-1.4.31-.51.52-.56,1.38-.55.24.15.46.11.41-.1-.1-.41.26-.71.71-.6q.25.15.62-.15c.15-.25.3-.51.51-.55l.16-.26q.15-.25.41-.09c.25.15.86.01,1.22-.29q.15-.25.41-.09s.25.15.46.11c.61-.15,1.13-.71.82-1.07-.24-.16.21-.92.99-1.32.2-.05.57-.36.57-.36q.15-.25.41-.1c.2-.04.45.11.65.06.41-.09,1.08-.9.99-1.32,0,0,.36-.29.61-.14.61-.14.77-.4.92-.65-.05-.21.15-.25.15-.25.05.2.42-.1.92-.66.67-.81.87-.86,1.33-.75.25.16.66.06.61-.14.2-.05.37-.3.61-.14.2-.05.16-.26.26-.72.06-.67.99-1.32,1.44-1.21.2-.05.36-.3.51-.56.11-.47.06-.67.26-.71.2-.05.37-.3.47-.77l1.04-1.11q.56-.36.47-.77c-.14-.61.01-.87.57-1.22l.47-.76c-.04-.21.26-.72.58-1.23.87-.86.82-1.07.48-1.63q-.29-.37.01-.87c.16-.25.31-.51.01-.87-.09-.41-.14-.62.06-.66.37-.3.38-1.18-.03-1.09,0,0-.3-.37-.4-.77q-.35-.57-1.17-.38c-1.22.29-2.24,1.4-2.46,2.33-.11.46-.43.97-.78,1.27-.15.25-.31.51-.21.92.09.42-.06.67-.43.96-.71.61-1.49,1.88-1.35,2.5-.15.25-.36.3-.56.36-.25-.16-.46-.11-.37.3.1.41.15.61-.26.71-.2.05-.56.36-.71.61-.58,1.22-2.17,2.69-3.29,3.39-.42.09-.82.19-.97.45-1.13.7-5.09,1.21-7.07,1.03-.46-.1-.86-.01-1.68.18-.25-.15-.91-.22-1.36-.32-.46-.11-1.12-.17-1.32-.12-.2.04-.41.09-.46-.11-.2.05-.46-.11-.86-.01l-.9-.22c-.25-.15-.71-.26-1.12-.16-.41.09-.86-.02-1.12-.17l-.7-.26c-.2.04-.41.09-.46-.11l-.91-.22-1.41-.53c-.25-.16-.46-.11-.81.19-.57.35-.77.4-.96-.43-.09-.42-.39-.77-.84-.88-1.21-.58-1.41-.54-1.23.28q-.1.47-.56.36c-.25-.15-.29-.37-.4-.77.11-.47.06-.67-.4-.78-.2.05-.7-.26-1.41-.53l-1.61-.49c-.41.09-.86-.01-1.32-.12-.91-.22-1.07.04-.96.45q-.11.47-.86-.01c-.3-.37-.56-.52-.6-.73.15-.25-.05-.2-.41.1,0,0-.37.3-.62.14-.81.19-1.01-.63-.44-.99.2-.04.36-.29.3-.51-.04-.2-.24-.15-.86-.01-.2.05-.45-.11-.45-.11-.25-.15-.66-.06-1.12-.16q-.81.19-.91-.22c-.09-.42-.14-.62-.35-.57-.2.05-.25-.16-.29-.37-.05-.2-.3-.37-.56-.52-.41.09-.65-.06-.65-.06-.1-.42-1.36-1.2-1.97-1.06-.2.05-.41.09-.46-.11-.09-.41-.45-.11-.51.56l-.26.71c-.2.05-.25-.15-.19-.82.01-.87-.59-1.59-1-1.5-.2.05-.46-.11-.71-.26-.04-.2-.29-.37-.5-.31-.61.14-.86-.01-.75-.48q.15-.25-.46-.1-.61.14-.76-.48c-.04-.2-.35-.57-.6-.73-.24-.15-.55-.52-.6-.72-.04-.2-.84-.88-1.85-1.51-.8-.68-2.06-1.47-2.57-1.79-.75-.48-.95-.43-1.16-.38-.16.25-.37.3-.41.09-.2.05-.86-.01-1.47.14-.2.04-.25-.16-.3-.37-.05-.21-.29-.37-.55-.53-.2.05-.25-.15-.09-.41q.15-.25-.15-.62c-.41.1-.66-.06-.66-.06-.2.05-.84-.88-.94-1.3,0,0-.35-.57-.6-.72-.29-.37-.4-.78-.4-.78-.04-.2-.09-.41-.35-.57l-.09-.41c-.65-.93-.7-1.15-1.11-1.05-.24-.16-.5-.31-.55-.52-.09-.42-.14-.62-.35-.58-.2.05-.05-.2.06-.66q.26-.72-.04-1.08c-.25-.16-.55-.53-.65-.93-.24-.16-.35-.58-.55-.53-.2.05-.29-.37-.68-2.01-.1-.41-.35-.57-.55-.52-.66-.06-.85-.88-.64-1.81l-.14-.62c-.25-.15-.4-.77-.59-1.59-.14-.62-.28-1.24-.54-1.4-.25-.15-1-5.2-.84-5.45,0,0,.06-.67-.03-1.08l-.18-1.7c.26-.72.21-.92-.03-1.08q-.25-.16-.1-.42s.16-.25.11-.46c-.1-.42-.14-.62.01-.87.2-.05.15-.25-.14-.62-.25-.16-.35-.57-.19-.82-.14-.62-.59-1.6-1-1.5,0,0-.2.04-.25-.16-.24-.15.16-.25.82-.19l1.22-.29v-.87s.54-1.42.54-1.42c.15-.25.21-.92.12-1.34.1-.46.05-.66.21-.91.15-.25.59-2.1.49-2.51,0,0,.15-.26.36-.3.42-.1.72-.61.47-.76-.04-.21.11-.47.47-.77.52-.55.63-1.02.59-2.09.11-.46.26-.71.47-.76l.26-.72c-.09-.41.06-.66.21-.91-.04-.21.11-.47.11-.47-.05-.2.42-.96.62-1.02l.26-.71q.06-.67-.09-.42-.37.3-.61.14c-.1-.41.11-1.33.52-1.42.62-.15,1.29-.96,1.45-2.09.11-.46.53-1.43.59-2.09l.62-1.02.52-.56c.15-.25.31-.51.26-.72-.35-.57-.24-1.03.37-1.17.2-.05.37-.3.31-.52-.05-.2.11-.46.11-.46.81-.19,2.27-3.15,2.28-4.02-.1-.42.01-.87.21-.92,0,0,.31-.51.42-.96.16-.25.47-.76.67-.81,0,0,.16-.25.06-.67.06-.66.53-1.43.62-1.02.05.2,1.1-1.79,1.31-2.7.11-.47.42-.97.42-.97.2-.04.16-.25.16-.25-.05-.2.1-.46.3-.51.16-.25.31-.51.26-.71-.04-.21-.09-.42.11-.47l.26-.71.31-.51c.41-.1.57-1.23.49-2.51-.14-.62.01-.87.42-.97.41-.09.61-.14.77-.4q.15-.25.61-.14c.5.31.7.26,1.07-.04.3-.51.62-1.02,1.04-1.99.11-.46.47-.76,1.08-.9l.72-.61c-.05-.2.26-.71.62-1.02.52-.56.63-1.02.63-1.02-.25-.16-.1-.42.06-.67q.15-.25.24.16.05.2.16-.25c.15-.26-.14-.62-.24-1.04-.29-.37-.35-.57-.08-1.28.1-.47.47-.77.52-.56,0,0,.24.15.65.06q.2-.05.16-.25c-.05-.21-.1-.42.1-.47.2-.04,1.04-1.11,1.71-1.92.3-.52.67-.81,1.08-.91.2-.05.56-.35.47-.76l.32-1.38c.15-.25.21-.92.16-1.13q-.09-.42.16-.25c.55.52,1.56.27,1.68-.18-.05-.2.1-.46.26-.71.1-.47.26-.72.21-.92-.1-.42.1-.46.72-.61,1.22-.28,1.37-.54,1.09-1.78-.13-1.49.02-1.75.48-1.64.5.31,1.02-.24.82-1.07.01-.87.44-1.85,1.05-1.99.2-.05.47-.76.63-1.89.49-1.63.84-1.94,1.8-1.51l.71.26.1-.46c.11-.47.06-.67.26-.72l.62-.14c.15-.25.51-.56.82-1.07.1-.47.47-.76.67-.81,0,0,.39-2.05.24-2.67.1-.46.21-.91.82-1.07.41-.09.56-.35.72-.6.2-.05.36-.3.56-.36s.36-.3.31-.51c0,0-.05-.2-.25-.16.05.21-.2.05-.41.1q-.25-.15-.1-.42c.16-.25.31-.51.26-.71q-.28-1.24.32-1.38c.41-.1.66.06.66.06.1.41.46.11.92-.66.36-.29.47-.76.42-.96-.05-.2.15-.25.66.06q.46.11.52-.56.06-.67.47-.76c.45.11.61-.14.76-.4.2-.05.36-.3.57-.36l.36-.3c.15-.25.52-.56.92-.65.46.11.61-.15.71-.61-.14-.62.49-1.64.69-1.69.04.21.24.16.2-.05.15-.25.36-.29.76-.4.2-.05.41-.1.37-.3-.05-.2.15-.25.36-.3l.3-.51s.16-.25.37-.3c0,0,.15-.25.11-.46,0,0-.05-.2.15-.25s.15-.25.15-.25c-.09-.42.72-.61,1.63-.39.2-.05.41-.1.36-.3s.15-.25.36-.3c.2-.05.37-.3.67-.81l.58-1.22c.36-.3.47-.77.42-.97,0,0-.04-.2.16-.25s.36-.3.51-.56c.16-.25.37-.3,1.03-.24.81-.19,1.78-.64,1.63-1.26,0,0,.11-.46.52-.56.15-.25.26-.71.21-.91,0,0-.05-.21.15-.25.2-.05.16-.25.16-.25-.1-.42.82-1.07,1.03-1.12.25.15.88-1.74.94-2.4v-.87c.64-1.03.79-1.28,1.2-1.37.25.15.41-.1.87-.86.26-.71.58-1.23.58-1.23.2-.04.56-.35.87-.85.3-.51.67-.81.87-.86,0,0,.2-.05.15-.25,0,0,.26-.71.78-1.27.26-.72.53-1.43.48-1.63,0,0,.15-.25.36-.3s.57-.36.87-.86l1.04-1.12c.52-.56.87-.85.93-1.52q.01-.87,1.03-1.12c1.07-.03,1.74-.84,1.81-2.39.06-.66.32-1.38.48-1.63.21-.05.26-.71.43-.96-.15-.62.06-.67,1.17-.5,0,0,.16-.25.11-.47.15-.25.31-.51.52-.56.61-.14,1.28-.95,1.18-1.36l.31-.52c.41-.09.52-.55.47-.76.15-.25.31-.51.72-.6.41-.1.76-.41.76-.41.16-.25.52-.56.87-.85.81-.2.77-.41,1.04-1.12.06-.67.21-.92.42-.97.46.11.92-.65.82-1.07-.29-.37.53-1.43,1.14-1.57.57-.35.72-.61.72-.61-.25-.15-.09-.41.26-.71.36-.3.72-.61.82-1.07.31-.51.47-.76.67-.81.2-.05.16-.25.11-.46,0,0-.05-.21.2-.05.2-.05.41-.1.36-.3.2-.05.57-.35.97-.45.36-.3.56-.36.66.06q.29.37.7.26c.37-.3.62-.14.86.02.46.1,1.68-.18,2.8-.89q.97-.45.78-1.27Z"/>
  </g>
</svg>