<?xml version="1.0" encoding="UTF-8"?>
<svg id="Layer_1" xmlns="http://www.w3.org/2000/svg" version="1.1" viewBox="0 0 150.56 120.44">
  <!-- Generator: Adobe Illustrator 29.4.0, SVG Export Plug-In . SVG Version: 2.1.0 Build 152)  -->
  <defs>
    <style>
      .st0, .st1 {
        fill: #fff;
      }

      .st1, .st2, .st3 {
        fill-rule: evenodd;
      }

      .st2 {
        fill: #ffd900;
      }

      .st3 {
        fill: #b40000;
      }
    </style>
  </defs>
  <path class="st1" d="M91.31,111.37c-9.88-.1-25.49-.24-37.92.1.29-3.58.95-7.73,1.78-12.18.02-.02.02-.03.02-.05,1.09-5.55,2.49-11.55,3.85-17.44.03-.11.05-.21.08-.32.48-2.1.98-4.22,1.46-6.32,1.51-.47,2.94-1.06,4.24-1.75,2.41-1.3,4.48-2.98,6.14-5.02.16-.19.3-.39.47-.58,1.64-2.12,2.89-4.6,3.71-7.44.87-2.92,1.3-6.22,1.3-9.8v-.24c-.02-2.86-.32-5.5-.93-7.89v-.02c-.58-2.23-1.43-4.27-2.53-6.08-.16-.27-.34-.55-.51-.8l-.02-.02v-.02c-1.41-2.02-3.27-3.79-5.52-5.23-1.76-1.14-3.74-2.02-5.89-2.66v-1.52h22.8v3.42c-1.46.75-2.49,2.21-3.06,4.33-.16.63-.3,1.44-.42,2.5-.29,2.58-.43,6.5-.43,11.81,0,.71.02,1.44.06,2.18.19,4.01.91,8.53,1.93,13.48-.63.59-1.2,1.25-1.7,1.97-.47.64-.85,1.33-1.2,2.04-.95,2.02-1.44,4.28-1.44,6.8,0,2.05.35,3.98,1.04,5.71l.02.02v.02c.21.5.43.98.69,1.44.59,1.11,1.32,2.15,2.18,3.13,1.12,1.3,2.52,2.5,4.12,3.58.71.47,1.43.91,2.18,1.33.06.3.13.63.19.95h-11.09v16.99l3.27.74c2.18.5,4.49.87,6.88,1.11,1.38.14,2.74.26,4.11.32.06.48.11.95.16,1.43Z"/>
  <path class="st1" d="M79.66,10.77h-3.76c0-.05.02-.11.02-.16v-1.56c0-.55-.45-1-1-1h-5.01c-.55,0-1,.45-1,1v1.56c0,.06,0,.11.02.16h-3.76l-3.16,1.84h20.83l-3.16-1.84Z"/>
  <g>
    <path class="st3" d="M91.31,111.37c-9.88-.1-25.49-.24-37.92.1.29-3.58.95-7.73,1.78-12.18h21.72v8.49l3.27.74c2.18.5,4.49.87,6.88,1.11,1.38.14,2.74.26,4.11.32.06.48.11.95.16,1.43Z"/>
    <path class="st3" d="M79.29,81.8h-20.26c.03-.11.05-.21.08-.32.48-2.1.98-4.22,1.46-6.32,1.51-.47,2.94-1.06,4.24-1.75,2.41-1.3,4.48-2.98,6.14-5.02.16-.19.3-.39.47-.58h7.57c-.95,2.02-1.44,4.28-1.44,6.8,0,2.05.35,3.98,1.04,5.71l.02.02v.02c.21.5.43.98.69,1.44Z"/>
    <path class="st3" d="M79.9,48.14c0,.71.02,1.44.06,2.18h-3.55c-.02-2.86-.32-5.5-.93-7.89v-.02c-.58-2.23-1.43-4.27-2.53-6.08h7.38c-.29,2.58-.43,6.5-.43,11.81Z"/>
  </g>
  <path class="st0" d="M97.31,62.78c1.83,0,3.58.09,5.25.29,1.66.19,3.57.54,5.71,1.03v8.94h-4.23c-.39-1.63-.9-2.91-1.5-3.87-.61-.96-1.37-1.66-2.28-2.11-.91-.45-2.04-.67-3.42-.67-1.17,0-2.22.2-3.15.61-.93.42-1.65,1.03-2.19,1.84-.53.81-.8,1.79-.8,2.94s.23,2.22.7,3.09c.46.87,1.24,1.72,2.33,2.56,1.1.83,2.68,1.79,4.75,2.85,2.54,1.31,4.53,2.61,5.97,3.87,1.45,1.26,2.53,2.64,3.21,4.12.68,1.49,1.03,3.23,1.03,5.19,0,2.52-.58,4.72-1.76,6.58-1.17,1.85-2.88,3.28-5.12,4.28-2.24,1-4.84,1.49-7.78,1.49-2.11,0-4.29-.12-6.56-.36-2.28-.23-4.4-.58-6.41-1.03v-9.49h4.23c.52,2.44,1.38,4.26,2.58,5.47,1.2,1.2,2.97,1.8,5.3,1.8,1.21,0,2.3-.2,3.27-.61.97-.42,1.75-1.08,2.33-1.99.59-.92.89-2.06.89-3.44,0-1.27-.24-2.38-.72-3.31-.47-.94-1.23-1.82-2.28-2.67-1.05-.84-2.52-1.74-4.38-2.67-1.61-.81-3.06-1.64-4.36-2.5-1.3-.86-2.4-1.81-3.31-2.85-.92-1.03-1.63-2.17-2.14-3.4-.5-1.24-.75-2.62-.75-4.16,0-2.52.62-4.67,1.88-6.44,1.25-1.77,3.08-3.11,5.45-4.03,2.38-.9,5.13-1.37,8.26-1.37h0Z"/>
  <path class="st0" d="M71.43,43.44c-.53-2.1-1.35-3.96-2.45-5.55-.39-.55-.8-1.07-1.28-1.56-.87-.95-1.88-1.8-3.05-2.55-.22-.14-.47-.29-.71-.4-1.62-.96-3.43-1.65-5.44-2.13-2.31-.53-5.18-.8-8.61-.8h-16.06v2.04c.8.21,1.41.43,1.84.69.45.27.77.59.98.99.22.43.37.95.4,1.62.06.64.1,1.46.1,2.42v26.57c0,.98-.03,1.8-.1,2.45-.06.64-.21,1.17-.43,1.59-.21.43-.53.75-.98.99-.43.22-1.04.45-1.81.66v2.04h14.02c3.32,0,6.06-.19,8.25-.56,2.04-.35,3.88-.9,5.55-1.65.4-.16.79-.35,1.17-.56,1.03-.56,1.97-1.2,2.84-1.93.75-.63,1.44-1.32,2.07-2.09,1.51-1.8,2.63-3.98,3.38-6.53.75-2.55,1.12-5.42,1.12-8.63v-.24c-.02-2.55-.29-4.84-.8-6.88ZM61.18,60.33c-.67,2.26-1.68,4.09-3.02,5.52-.8.87-1.78,1.54-2.94,2.02-1.54.67-3.45.99-5.71.99-1.51,0-2.44-.03-2.81-.08v-34.67c.56-.03,1.48-.06,2.74-.06,2.66,0,4.94.61,6.85,1.83,1.89,1.22,3.37,3.13,4.41,5.71,1.06,2.57,1.57,5.81,1.57,9.71,0,3.56-.37,6.56-1.11,9.03Z"/>
  <path class="st0" d="M74.91,1.9c2.15,0,4.18,1.05,5.43,2.76.77.09,1.52.34,2.19.73l3.17,1.85c2.03,1.19,3.12,3.53,2.75,5.83.05.3.08.62.08.94v4.97c1.69,1.01,2.78,2.85,2.78,4.88v6.39c0,2.24-1.33,4.27-3.34,5.18-.14.65-.58,3.34-.58,12.27,0,2.59.31,5.65.96,9.53,2.44-.64,5.09-.97,7.92-.97,2.08,0,4.08.11,5.95.34,1.92.22,4,.6,6.38,1.15l3.24.75c.86.2,1.47.97,1.47,1.85v16.43c0,1.05-.85,1.9-1.9,1.9h-4.53c.18.15.36.3.53.45,2.1,1.83,3.7,3.9,4.75,6.18,1.05,2.29,1.59,4.89,1.59,7.72,0,3.7-.91,7.01-2.7,9.82-1.82,2.88-4.44,5.1-7.79,6.59-1.38.61-2.86,1.09-4.43,1.43.01.13.02.26.04.39l.09.97c.14,1.6-.4,3.19-1.49,4.37-1.07,1.16-2.6,1.83-4.19,1.83h-.05s-.02,0-.02,0h-.98s-.17-.02-.17-.02c-5.21-.05-12.35-.13-19.84-.13s-14.32.08-19.58.24l-.86.03c-.09,0-.17,0-.21,0-1.49,0-2.91-.57-3.97-1.61-1.1-1.06-1.73-2.55-1.73-4.08v-1.65c0-.15,0-.3.02-.42.65-8.8,3.33-20.31,5.92-31.44l.2-.88c-1,.04-2.04.06-3.12.06h-18.2c-1.05,0-1.9-.85-1.9-1.9v-9.39c0-.85.57-1.6,1.4-1.83l1.91-.52c0-.05,0-.11,0-.16v-26.56c0-.06,0-.13,0-.19l-1.89-.5c-.83-.22-1.41-.97-1.41-1.83v-9.41c0-1.05.85-1.9,1.9-1.9h20.24c.91,0,1.78.02,2.6.05v-.51c0-2.01,1.08-3.85,2.75-4.87v-4.98c0-.32.03-.63.08-.94-.37-2.29.72-4.64,2.75-5.83l3.17-1.85c.68-.39,1.42-.64,2.2-.73,1.25-1.71,3.27-2.76,5.42-2.76h5.01M74.91,0h-5.01c-2.47,0-4.83,1.08-6.46,2.92-.74.17-1.45.45-2.12.84l-3.17,1.85c-2.6,1.52-4.07,4.49-3.71,7.46-.04.31-.06.63-.06.94v4.01c-1.35,1.12-2.28,2.69-2.61,4.4-.27,0-.55,0-.84,0h-20.24c-2.1,0-3.8,1.7-3.8,3.8v9.41c0,1.72,1.16,3.23,2.83,3.67l.48.13v24l-.51.14c-1.65.45-2.8,1.96-2.8,3.66v9.39c0,2.09,1.71,3.8,3.8,3.8h18.2c.24,0,.48,0,.72,0-2.49,10.73-4.98,21.68-5.62,30.23-.01.16-.02.36-.02.56v1.65c0,2.04.84,4.03,2.31,5.45,1.42,1.38,3.3,2.14,5.3,2.14.07,0,.17,0,.3,0l.83-.02c5.24-.16,11.81-.24,19.52-.24s14.6.07,19.81.12h.16s.99.02.99.02h.05s.05,0,.05,0c2.12,0,4.15-.89,5.59-2.44,1.39-1.51,2.12-3.53,2.01-5.57,1.1-.31,2.16-.7,3.17-1.14,3.7-1.64,6.6-4.1,8.62-7.31,1.98-3.12,2.99-6.77,2.99-10.83,0-3.11-.59-5.97-1.76-8.52-.64-1.38-1.46-2.7-2.45-3.94,2.08-.02,3.78-1.71,3.78-3.8v-16.43c0-1.78-1.21-3.3-2.95-3.7l-3.24-.75c-2.44-.57-4.6-.96-6.59-1.18-1.94-.23-4.01-.35-6.17-.35s-4.35.19-6.36.57c-.42-2.84-.62-5.22-.62-7.23,0-6.67.24-9.75.4-11.05,2.16-1.38,3.51-3.79,3.51-6.4v-6.39c0-2.27-1.04-4.43-2.78-5.86v-3.99c0-.32-.02-.63-.06-.94.35-2.97-1.11-5.94-3.71-7.46l-3.17-1.85c-.67-.39-1.38-.67-2.12-.84-1.63-1.84-3.99-2.92-6.46-2.92h0Z"/>
  <polygon class="st2" points="62.93 16.23 81.89 16.23 81.89 22.47 62.93 22.47 62.93 16.23 62.93 16.23"/>
</svg>